<?xml version="1.0" encoding="UTF-8"?>
<svg id="uuid-d1f730bf-05fd-45a8-a8ee-62ee071a4a1b" data-name="Layer 6" xmlns="http://www.w3.org/2000/svg" viewBox="0 0 482.42 482.42">
  <defs>
    <style>
      .uuid-67eaac9f-1bd3-4765-97a9-87f73d7e1886 {
        fill: #ffd400;
      }

      .uuid-67eaac9f-1bd3-4765-97a9-87f73d7e1886, .uuid-eddd63b5-86e5-432b-8d8b-95e694e69dca, .uuid-37a6601e-9b06-45bf-bd2d-218743269af0, .uuid-e4d1c165-76a0-4d3d-9db0-a7f82bf29c66, .uuid-ddb5103b-1f7c-47fa-99cf-f57266dc7a21, .uuid-4908ad54-8df3-4afb-b86b-3453796c45ee, .uuid-4ebad11f-d2d6-49ad-ba2b-92d8453ad813, .uuid-e8944275-31d2-4a58-ba50-0916e8b46d95, .uuid-8e0d7aba-785c-4775-8ad6-13186aa7b755 {
        stroke-width: 0px;
      }

      .uuid-eddd63b5-86e5-432b-8d8b-95e694e69dca {
        fill: #58595b;
      }

      .uuid-37a6601e-9b06-45bf-bd2d-218743269af0 {
        fill: #b4ff83;
      }

      .uuid-e4d1c165-76a0-4d3d-9db0-a7f82bf29c66 {
        fill: #eefaff;
      }

      .uuid-38f46075-cc8c-49a9-be2b-35025397412e {
        fill: none;
        stroke: #c3004a;
        stroke-miterlimit: 10;
        stroke-width: 8px;
      }

      .uuid-ddb5103b-1f7c-47fa-99cf-f57266dc7a21 {
        fill: #ff9256;
      }

      .uuid-4908ad54-8df3-4afb-b86b-3453796c45ee {
        fill: #c3004a;
      }

      .uuid-4ebad11f-d2d6-49ad-ba2b-92d8453ad813 {
        fill: #939598;
      }

      .uuid-e8944275-31d2-4a58-ba50-0916e8b46d95 {
        fill: #231f20;
      }

      .uuid-8e0d7aba-785c-4775-8ad6-13186aa7b755 {
        fill: #0386e8;
      }
    </style>
  </defs>
  <circle class="uuid-4ebad11f-d2d6-49ad-ba2b-92d8453ad813" cx="240.54" cy="241.55" r="241.21"/>
  <circle class="uuid-eddd63b5-86e5-432b-8d8b-95e694e69dca" cx="240.86" cy="241.13" r="234.13"/>
  <circle class="uuid-e8944275-31d2-4a58-ba50-0916e8b46d95" cx="241.29" cy="241.28" r="227.85"/>
  <circle class="uuid-37a6601e-9b06-45bf-bd2d-218743269af0" cx="241.65" cy="241.25" r="221.28"/>
  <rect class="uuid-e4d1c165-76a0-4d3d-9db0-a7f82bf29c66" x="269.55" y="109.23" width="27.92" height="40.39"/>
  <rect class="uuid-e4d1c165-76a0-4d3d-9db0-a7f82bf29c66" x="202.07" y="197.36" width="58.53" height="51.33"/>
  <path class="uuid-67eaac9f-1bd3-4765-97a9-87f73d7e1886" d="M221.94,93.76c-14.27,4.37-23.11,17.92-21.53,30.95,1.89,15.51,18.24,27.77,36.03,24.22,4.48.38,11.33.9,19.7,1.23,47.94,1.89,59.09-5.79,78.81,1.46,4,1.47,27.91,10.74,36.72,34.87,7.48,20.49,1.16,43.67-11.83,57.97-10.18,11.2-26.15,18.83-41.01,20.03-7.25.59-11.39-.58-19.45,1.92-3.37,1.05-16.03,4.98-23.28,16.08-7.9,12.09-1.48,20.59-8.42,31.93-5.2,8.49-14.38,12.82-22.95,15.17-.03-3.45-.56-15.13-9.34-24.59-7.62-8.2-17.24-10.22-20.71-10.76-20.4-3.16-27.99,13.83-45.22,10.09-13.75-2.99-21.21-16.49-22.87-19.51-.69-1.24-11-20.47-3.41-33.35,12.25-20.79,64.65-14.2,86.64-11.44,18.08,2.27,36.48-.63,54.67.39,1.7.1,7.29.43,12.78-2.69,5.79-3.28,11.43-10.38,10.76-18.16-.57-6.61-5.46-10.98-6.76-12.14-10.94-9.76-28.83-5.53-55.8-1.32-57.25,8.94-72.66,4.87-79.38,2.69-7.01-2.27-19.53-6.5-30.27-18.16-13.55-14.7-20.02-36.59-15.47-57.85.82-3.83,6.89-30.07,32.29-43.73,21.41-11.51,48.16-9.56,69.29,4.71Z"/>
  <polygon class="uuid-ddb5103b-1f7c-47fa-99cf-f57266dc7a21" points="254.9 109.23 283.51 81.58 310.07 109.23 254.9 109.23"/>
  <rect class="uuid-e4d1c165-76a0-4d3d-9db0-a7f82bf29c66" x="192.21" y="161.7" width="81.11" height="53.45" rx="12" ry="12"/>
  <polygon class="uuid-ddb5103b-1f7c-47fa-99cf-f57266dc7a21" points="181.1 174.03 233.32 123.54 281.81 174.03 181.1 174.03"/>
  <circle class="uuid-4908ad54-8df3-4afb-b86b-3453796c45ee" cx="142.09" cy="251.42" r="14.82"/>
  <circle class="uuid-4908ad54-8df3-4afb-b86b-3453796c45ee" cx="117.84" cy="290.36" r="6.22"/>
  <circle class="uuid-4908ad54-8df3-4afb-b86b-3453796c45ee" cx="361.87" cy="277.41" r="6.73"/>
  <circle class="uuid-4908ad54-8df3-4afb-b86b-3453796c45ee" cx="346.16" cy="94.39" r="15.7"/>
  <polygon class="uuid-8e0d7aba-785c-4775-8ad6-13186aa7b755" points="100.67 194.68 106.76 207.04 120.4 209.02 110.53 218.63 112.86 232.21 100.67 225.8 88.47 232.21 90.8 218.63 80.94 209.02 94.57 207.04 100.67 194.68"/>
  <polygon class="uuid-8e0d7aba-785c-4775-8ad6-13186aa7b755" points="321.5 283.14 327.6 295.49 341.23 297.47 331.37 307.09 333.7 320.66 321.5 314.25 309.31 320.66 311.64 307.09 301.77 297.47 315.41 295.49 321.5 283.14"/>
  <polygon class="uuid-8e0d7aba-785c-4775-8ad6-13186aa7b755" points="390.03 126.86 396.13 139.22 409.76 141.2 399.9 150.81 402.22 164.39 390.03 157.98 377.84 164.39 380.17 150.81 370.3 141.2 383.93 139.22 390.03 126.86"/>
  <circle class="uuid-4908ad54-8df3-4afb-b86b-3453796c45ee" cx="167.39" cy="136.48" r="6.22"/>
  <path class="uuid-e4d1c165-76a0-4d3d-9db0-a7f82bf29c66" d="M100.67,383.55l10.95-27.43c28.16,4.18,48.31.46,61.89-4.04,7.31-2.42,19.53-7.33,36.33-6.73,17.02.61,23.71,6.35,25.56,8.07,7.11,6.61,8.83,15.36,9.34,19.28,1.09-4.36,4-13.32,12.18-19.95,5.55-4.5,12.04-6.74,20.82-7.74,25.64-2.94,37.88,8.38,65.96,11.78,8,.97,19.96,1.62,34.98-.67,3.78,9.14,7.56,18.28,11.35,27.43H100.67Z"/>
  <polygon class="uuid-e4d1c165-76a0-4d3d-9db0-a7f82bf29c66" points="220.38 377.32 232.77 397.16 260.6 397.16 273.33 377.32 220.38 377.32"/>
  <line class="uuid-38f46075-cc8c-49a9-be2b-35025397412e" x1="84.35" y1="383.55" x2="142.61" y2="383.55"/>
  <circle class="uuid-4908ad54-8df3-4afb-b86b-3453796c45ee" cx="165.69" cy="383.55" r="6.22"/>
  <polyline class="uuid-38f46075-cc8c-49a9-be2b-35025397412e" points="192.21 383.55 224.27 383.55 232.77 397.16 257.6 397.16 267.84 383.55 400.89 383.55"/>
  <rect class="uuid-8e0d7aba-785c-4775-8ad6-13186aa7b755" x="213.2" y="194.68" width="12.49" height="18.76" rx="5.98" ry="5.98"/>
  <rect class="uuid-8e0d7aba-785c-4775-8ad6-13186aa7b755" x="238.25" y="194.68" width="12.49" height="18.76" rx="5.98" ry="5.98"/>
</svg>