<?xml version="1.0" encoding="UTF-8"?>
<svg id="uuid-c3ccd581-7358-4176-a82b-ae70887298c6" data-name="Layer 5" xmlns="http://www.w3.org/2000/svg" viewBox="0 0 482.42 482.42">
  <defs>
    <style>
      .uuid-f0b6a4e4-4aa4-44f5-9c72-f26328f7be07 {
        fill: #58595b;
      }

      .uuid-f0b6a4e4-4aa4-44f5-9c72-f26328f7be07, .uuid-081cc16c-98cb-4011-ba39-433e8c0a7c80, .uuid-aafaf526-9aac-48fd-a7cc-12717922ad1a, .uuid-babbabd5-8b44-4bd0-b428-b11e08f26f8e, .uuid-662bf243-cf6d-4838-a370-d10dc90c06f8, .uuid-269f1d3e-c6e5-4377-87d8-dd7b9a22d711, .uuid-fda2a919-66ab-437b-8ecb-7b8cb9ed8513 {
        stroke-width: 0px;
      }

      .uuid-081cc16c-98cb-4011-ba39-433e8c0a7c80 {
        fill: #fff;
      }

      .uuid-aafaf526-9aac-48fd-a7cc-12717922ad1a {
        fill: #050404;
      }

      .uuid-babbabd5-8b44-4bd0-b428-b11e08f26f8e {
        fill: #939598;
      }

      .uuid-662bf243-cf6d-4838-a370-d10dc90c06f8 {
        fill: #231f20;
      }

      .uuid-269f1d3e-c6e5-4377-87d8-dd7b9a22d711 {
        fill: #b86e29;
      }

      .uuid-fda2a919-66ab-437b-8ecb-7b8cb9ed8513 {
        fill: #83e8ff;
      }
    </style>
  </defs>
  <circle class="uuid-babbabd5-8b44-4bd0-b428-b11e08f26f8e" cx="241.21" cy="240.5" r="241.21"/>
  <circle class="uuid-f0b6a4e4-4aa4-44f5-9c72-f26328f7be07" cx="241.53" cy="240.08" r="234.13"/>
  <circle class="uuid-662bf243-cf6d-4838-a370-d10dc90c06f8" cx="241.96" cy="240.23" r="227.85"/>
  <circle class="uuid-fda2a919-66ab-437b-8ecb-7b8cb9ed8513" cx="242.32" cy="240.2" r="221.28"/>
  <ellipse class="uuid-269f1d3e-c6e5-4377-87d8-dd7b9a22d711" cx="167.48" cy="141.7" rx="46.68" ry="46.15"/>
  <path class="uuid-269f1d3e-c6e5-4377-87d8-dd7b9a22d711" d="M247.86,88.1c-9.13-12.78-39.56-1.69-51.55,3-33.52,14.16-65.63,32.93-92.69,57.4-9.72,9.39-19.62,19.62-24.55,32.39-2.41,6.27-2.09,13.76,5.06,16.47,15.8,5.65,43.51-5.6,58.49-12.22,28.91-13.4,56.06-30.9,79.92-52.04,9.55-8.76,32.76-31.19,25.32-44.99h0ZM248.12,87.94c4.65,8.24-1.87,18.61-6.32,25.6-25.79,35.87-69.95,63.68-110.77,79.51-58.32,21.42-73.74-2.26-28.07-45.26,33.07-30.64,74.38-57.46,119.38-65.37,8.26-.94,20.41-2.24,25.78,5.52h0Z"/>
  <path class="uuid-269f1d3e-c6e5-4377-87d8-dd7b9a22d711" d="M240.32,91.84c-8.23-11.29-35.63-.87-46.28,3.38-30,12.98-58.86,29.73-83.32,51.55-8.8,8.37-17.74,17.48-22.37,28.86-2.25,5.5-2.14,12.34,4.35,14.58,13.94,4.72,39.22-5.67,52.4-11.61,25.92-12.16,50.27-27.86,71.87-46.67,8.57-7.76,29.84-27.73,23.35-40.08h0ZM240.58,91.68c4.12,7.42-2.02,16.71-6.04,22.93-23.7,32.23-62.82,56.85-99.7,71.42-52.74,19.68-66.45-1.24-24.78-39.98,30.16-27.64,66.5-51.37,107.26-58.97,7.38-.9,18.39-2.33,23.26,4.6h0Z"/>
  <path class="uuid-269f1d3e-c6e5-4377-87d8-dd7b9a22d711" d="M234.72,96.31c-11.92-14.19-66.42,18.04-79.77,26.05-12.48,7.58-24.68,15.78-35.72,25.37-8.08,7.24-16.2,15.04-21.17,24.78-2.27,4.62-3.25,10.87,3.1,12.34,15.03,3.05,42.44-10.45,56.06-17.6,12.85-6.89,25.28-14.61,37.15-23.08,11.79-8.53,23.52-17.46,33.05-28.55,3.82-4.73,10.5-13.09,7.3-19.31h0ZM234.98,96.15c3.4,6.32-3.3,14.97-6.9,19.99-22.96,28.18-56.25,49.07-89.46,63.19-47.89,19.31-59.34,2.22-20.03-32.33,27.44-24.12,59.42-45.04,95.4-53.38,6.15-1.05,16.76-3.27,20.99,2.53h0Z"/>
  <path class="uuid-aafaf526-9aac-48fd-a7cc-12717922ad1a" d="M204.55,231.59c-.75,1.49-1.64,3.78-1.69,6.6-.05,3.25,1.03,6.13,5.7,12.89,5,7.24,7.62,11.04,12.7,15.57,5.51,4.91,10.46,7.59,13.25,9.08,6.86,3.66,12.32,6.48,19.38,5.89,3.39-.29,6.07-1.27,7.74-2.01,34.14-40.37,68.29-80.73,102.43-121.1,2.53-9.23,4.86-20.12,6.26-32.45,1.23-10.79,1.52-20.63,1.33-29.25,3.5-3.96,6.99-7.92,10.49-11.88,1.16.42,2.43.18,3.25-.61,1.12-1.09,1.04-2.88.27-3.97-1.15-1.61-3.88-1.76-5.11-.32-.73.85-.86,2.16-.39,3.37-3.43,3.98-6.87,7.96-10.3,11.94-8.16,1.76-14.66,3.14-18.7,3.99-17.49,3.69-22.2,4.57-28.97,7.22-6.92,2.7-12.23,5.77-15.62,7.93-34,39.04-68,78.08-102.01,117.13v-.02Z"/>
  <circle class="uuid-081cc16c-98cb-4011-ba39-433e8c0a7c80" cx="323.81" cy="150.69" r="18.4"/>
  <circle class="uuid-aafaf526-9aac-48fd-a7cc-12717922ad1a" cx="323.81" cy="150.69" r="16.4"/>
  <circle class="uuid-081cc16c-98cb-4011-ba39-433e8c0a7c80" cx="323.81" cy="150.69" r="10.92"/>
  <circle class="uuid-269f1d3e-c6e5-4377-87d8-dd7b9a22d711" cx="325.1" cy="137.07" r="2.71"/>
  <circle class="uuid-269f1d3e-c6e5-4377-87d8-dd7b9a22d711" cx="323.81" cy="164.35" r="2.71"/>
  <circle class="uuid-269f1d3e-c6e5-4377-87d8-dd7b9a22d711" cx="337.5" cy="151.43" r="2.71"/>
  <circle class="uuid-269f1d3e-c6e5-4377-87d8-dd7b9a22d711" cx="310.16" cy="150.69" r="2.71"/>
  <circle class="uuid-269f1d3e-c6e5-4377-87d8-dd7b9a22d711" cx="313.58" cy="159.9" r="2.71"/>
  <circle class="uuid-269f1d3e-c6e5-4377-87d8-dd7b9a22d711" cx="334.03" cy="159.9" r="2.71"/>
  <circle class="uuid-269f1d3e-c6e5-4377-87d8-dd7b9a22d711" cx="334.03" cy="141.7" r="2.71"/>
  <circle class="uuid-269f1d3e-c6e5-4377-87d8-dd7b9a22d711" cx="314.61" cy="140.93" r="2.71"/>
  <circle class="uuid-081cc16c-98cb-4011-ba39-433e8c0a7c80" cx="293.8" cy="184.52" r="18.4"/>
  <circle class="uuid-aafaf526-9aac-48fd-a7cc-12717922ad1a" cx="293.8" cy="184.52" r="16.4"/>
  <circle class="uuid-081cc16c-98cb-4011-ba39-433e8c0a7c80" cx="293.8" cy="184.52" r="10.92"/>
  <circle class="uuid-269f1d3e-c6e5-4377-87d8-dd7b9a22d711" cx="295.08" cy="170.9" r="2.71"/>
  <circle class="uuid-269f1d3e-c6e5-4377-87d8-dd7b9a22d711" cx="293.8" cy="198.18" r="2.71"/>
  <circle class="uuid-269f1d3e-c6e5-4377-87d8-dd7b9a22d711" cx="307.49" cy="185.26" r="2.71"/>
  <circle class="uuid-269f1d3e-c6e5-4377-87d8-dd7b9a22d711" cx="280.14" cy="184.52" r="2.71"/>
  <circle class="uuid-269f1d3e-c6e5-4377-87d8-dd7b9a22d711" cx="283.56" cy="193.73" r="2.71"/>
  <circle class="uuid-269f1d3e-c6e5-4377-87d8-dd7b9a22d711" cx="304.02" cy="193.73" r="2.71"/>
  <circle class="uuid-269f1d3e-c6e5-4377-87d8-dd7b9a22d711" cx="304.02" cy="175.53" r="2.71"/>
  <circle class="uuid-269f1d3e-c6e5-4377-87d8-dd7b9a22d711" cx="284.59" cy="174.76" r="2.71"/>
  <circle class="uuid-081cc16c-98cb-4011-ba39-433e8c0a7c80" cx="264.45" cy="219.29" r="18.4"/>
  <circle class="uuid-aafaf526-9aac-48fd-a7cc-12717922ad1a" cx="264.45" cy="219.29" r="16.4"/>
  <circle class="uuid-081cc16c-98cb-4011-ba39-433e8c0a7c80" cx="264.45" cy="219.29" r="10.92" transform="translate(5.63 445.2) rotate(-80.78)"/>
  <circle class="uuid-269f1d3e-c6e5-4377-87d8-dd7b9a22d711" cx="265.74" cy="205.66" r="2.71"/>
  <circle class="uuid-269f1d3e-c6e5-4377-87d8-dd7b9a22d711" cx="264.45" cy="232.94" r="2.71"/>
  <circle class="uuid-269f1d3e-c6e5-4377-87d8-dd7b9a22d711" cx="278.14" cy="220.02" r="2.71"/>
  <circle class="uuid-269f1d3e-c6e5-4377-87d8-dd7b9a22d711" cx="250.79" cy="219.29" r="2.71"/>
  <circle class="uuid-269f1d3e-c6e5-4377-87d8-dd7b9a22d711" cx="254.22" cy="228.49" r="2.71" transform="translate(-12.04 442.83) rotate(-80.78)"/>
  <circle class="uuid-269f1d3e-c6e5-4377-87d8-dd7b9a22d711" cx="274.67" cy="228.49" r="2.71"/>
  <circle class="uuid-269f1d3e-c6e5-4377-87d8-dd7b9a22d711" cx="274.67" cy="210.29" r="2.71"/>
  <circle class="uuid-269f1d3e-c6e5-4377-87d8-dd7b9a22d711" cx="255.24" cy="209.52" r="2.71"/>
  <path class="uuid-aafaf526-9aac-48fd-a7cc-12717922ad1a" d="M284.59,256.57l-18.86,22.6c2.5,2.06,6.8,6.17,9.75,12.76,3.84,8.58,3.14,16.36,2.65,19.63,4.38-7.05,13.77-24.53,9.6-44.93-.75-3.69-1.86-7.05-3.15-10.05h.01Z"/>
  <path class="uuid-aafaf526-9aac-48fd-a7cc-12717922ad1a" d="M224.05,205.19c-6.37,7.25-12.74,14.5-19.1,21.76-3.2-2.26-8.04-5.12-14.43-7.03-8.88-2.65-16.54-2.21-21.01-1.59,5.77-4.85,22.19-17.29,43.38-15.43,4.1.36,7.84,1.21,11.16,2.3h0Z"/>
  <path class="uuid-269f1d3e-c6e5-4377-87d8-dd7b9a22d711" d="M178.18,278.72c-31.46,20.77-46.18,33.17-44.16,37.21,1.38,2.76,10.56,1.61,27.55-3.43-43.87,59.47-61.39,86.87-58.46,89.3,2.89,2.4,26.02-19.34,75.07-72.13-1.8,20.15-1.15,30.61,1.96,31.4,3.98,1.01,12-13.87,24.04-44.65,4.32,30.77,8.57,46.14,12.76,46.12,5.17-.02,10.24-23.57,15.21-70.65-1.94-4.94-5.8-12.9-13.25-20.61-8.21-8.49-16.95-12.71-22.04-14.72-32.14,10.42-47.85,17.29-47.14,20.61.53,2.45,10.01,2.97,28.46,1.55Z"/>
  <path class="uuid-081cc16c-98cb-4011-ba39-433e8c0a7c80" d="M223.53,209.65c4.19,7.32,10.84,17.04,21.02,26.54,12.98,12.1,26.19,18.69,34.99,22.24-.5.64-.99,1.29-1.49,1.93-9.05-3.85-22.18-10.73-35.11-22.86-9.88-9.27-16.56-18.69-20.93-26.02.51-.61,1.02-1.22,1.52-1.83h0Z"/>
</svg>