<?xml version="1.0" encoding="UTF-8"?>
<svg xmlns="http://www.w3.org/2000/svg" viewBox="0 0 1537.1 1016.75">
  <defs>
    <style>
      .uuid-49fd8d43-6bc0-44cb-98e7-d9a50df566e7 {
        fill: #ffd400;
      }

      .uuid-49fd8d43-6bc0-44cb-98e7-d9a50df566e7, .uuid-6e09ba04-e121-4b22-9bb1-e9ea2d00ea7c, .uuid-7b7c2dc4-a747-4543-87b7-01b77a807a7e, .uuid-fde9d440-a0a5-4b61-8f70-6f9caba6eb09, .uuid-81cbd5bd-e8b9-46a0-8278-7d1c47a99e5c, .uuid-269e2c15-1cbc-4312-bcd8-3d47cf042a0f, .uuid-f51d80a8-01c6-4ae0-ad18-5c7988ed8d05, .uuid-924d941c-8c07-4269-8db5-9cff40062102, .uuid-a7a43af8-1eca-453a-82b2-2a31dff4207a, .uuid-280535ab-5ef2-42f3-adbf-8e37ace9a719, .uuid-96da51a0-5a3d-4321-9f01-7112a0618293, .uuid-36674a6a-51f1-44c0-be28-4b81e23ac065, .uuid-d02ae6d3-3d10-4770-ac9f-801ab318ad84, .uuid-8359c385-971f-4b82-8ef9-ff5d4db4eb9d, .uuid-02bfdb48-8749-4f6e-afca-9f552d980bef, .uuid-e2be832d-2811-426f-b91c-e01bcb750880, .uuid-184b1f3f-1163-4637-9458-b3ad832efcad, .uuid-4c3fb6fd-6355-4485-8687-50ec8f74d18f, .uuid-ae5e2130-4a1f-4fc2-ab73-7c54afe01ee2, .uuid-3f502840-adaa-4175-ae14-52a4d939fe6d, .uuid-e8c9148a-c87a-442d-a638-a090ea44b743, .uuid-a2e153eb-b833-4153-906b-7461bbacff99, .uuid-759fc627-2054-4fe9-b1f7-f78b5b3cc527, .uuid-1ecda961-422c-462f-b6c6-87b34c712b0f {
        stroke-width: 0px;
      }

      .uuid-6e09ba04-e121-4b22-9bb1-e9ea2d00ea7c {
        fill: #050505;
      }

      .uuid-7b7c2dc4-a747-4543-87b7-01b77a807a7e {
        fill: #58595b;
      }

      .uuid-81cbd5bd-e8b9-46a0-8278-7d1c47a99e5c {
        fill: #99f;
      }

      .uuid-269e2c15-1cbc-4312-bcd8-3d47cf042a0f {
        fill: #b4ff83;
      }

      .uuid-f51d80a8-01c6-4ae0-ad18-5c7988ed8d05 {
        fill: #eefaff;
      }

      .uuid-01b7a8ca-7e09-4c6c-9e93-b41fb36ae319 {
        stroke: #c3004a;
        stroke-width: 8px;
      }

      .uuid-01b7a8ca-7e09-4c6c-9e93-b41fb36ae319, .uuid-30f46b14-c226-4eeb-a35a-f2a642dc22d7 {
        fill: none;
        stroke-miterlimit: 10;
      }

      .uuid-924d941c-8c07-4269-8db5-9cff40062102 {
        fill: #fafbfc;
      }

      .uuid-30f46b14-c226-4eeb-a35a-f2a642dc22d7 {
        stroke: #8b173c;
        stroke-width: 20px;
      }

      .uuid-a7a43af8-1eca-453a-82b2-2a31dff4207a {
        fill: #ff9256;
      }

      .uuid-280535ab-5ef2-42f3-adbf-8e37ace9a719 {
        fill: #ed1b53;
      }

      .uuid-96da51a0-5a3d-4321-9f01-7112a0618293 {
        fill: #fff;
      }

      .uuid-36674a6a-51f1-44c0-be28-4b81e23ac065 {
        fill: #c3004a;
      }

      .uuid-d02ae6d3-3d10-4770-ac9f-801ab318ad84 {
        fill: #050404;
      }

      .uuid-8359c385-971f-4b82-8ef9-ff5d4db4eb9d {
        fill: #939598;
      }

      .uuid-02bfdb48-8749-4f6e-afca-9f552d980bef {
        fill: #fcf;
      }

      .uuid-e2be832d-2811-426f-b91c-e01bcb750880 {
        fill: #8b173c;
      }

      .uuid-184b1f3f-1163-4637-9458-b3ad832efcad {
        fill: #231f20;
      }

      .uuid-4c3fb6fd-6355-4485-8687-50ec8f74d18f {
        fill: #0386e8;
      }

      .uuid-ae5e2130-4a1f-4fc2-ab73-7c54afe01ee2 {
        fill: #d2a85a;
      }

      .uuid-3f502840-adaa-4175-ae14-52a4d939fe6d {
        fill: #ffcb78;
      }

      .uuid-e8c9148a-c87a-442d-a638-a090ea44b743 {
        fill: #305c2c;
      }

      .uuid-a2e153eb-b833-4153-906b-7461bbacff99 {
        fill: #b86e29;
      }

      .uuid-759fc627-2054-4fe9-b1f7-f78b5b3cc527 {
        fill: #eff2be;
      }

      .uuid-1ecda961-422c-462f-b6c6-87b34c712b0f {
        fill: #83e8ff;
      }
    </style>
  </defs>
  <g id="uuid-d8e293ed-c23b-481e-bbbd-39aaa6ca0498" data-name="Layer 1">
    <circle class="uuid-8359c385-971f-4b82-8ef9-ff5d4db4eb9d" cx="776.68" cy="242.03" r="241.21"/>
    <circle class="uuid-7b7c2dc4-a747-4543-87b7-01b77a807a7e" cx="777" cy="241.61" r="234.13"/>
    <circle class="uuid-184b1f3f-1163-4637-9458-b3ad832efcad" cx="777.43" cy="241.76" r="227.85"/>
    <circle class="uuid-3f502840-adaa-4175-ae14-52a4d939fe6d" cx="777.79" cy="241.73" r="221.28"/>
    <path class="uuid-fde9d440-a0a5-4b61-8f70-6f9caba6eb09" d="M742.41,203.06v23.81h21.57l11.9-8.18c1.54,3.66,3.44,9.44,3.72,16.74.36,9.23-2.05,16.47-3.72,20.46-4.22-3.47-8.43-6.94-12.65-10.42l-20.83-1.49v21.57c8.43,6.82,16.86,13.64,25.29,20.46-2.85,3.1-5.7,6.2-8.56,9.3h-11.53c-1.09-1.46-3.46-4.2-7.44-6.14-4.11-2-7.84-2.11-9.67-2.05-.23,2.35-.31,5.18,0,8.37.47,4.75,1.66,8.67,2.79,11.53-.9,1.98-2.5,6.22-2.05,11.72.15,1.82.65,7.01,4.46,11.9,3.73,4.79,8.47,6.51,11.53,7.63,5.76,2.09,10.93,2.02,14.13,1.67.84,4.4,1.52,10.25,1.12,17.11-.46,7.71-2.14,14.06-3.72,18.6h-58.03l-5.21-92.25,23.81-19.34.74-18.6-20.83-.74-11.16,11.16c-1.54-1.67-7.05-8.04-7.44-17.85-.45-11.22,6.12-18.65,7.44-20.09,3.22,2.73,6.45,5.46,9.67,8.18l20.83.74v-23.81l-9.67-9.67c5.59-1.19,12.65-2.2,20.83-2.23,8.51-.03,15.83,1.01,21.57,2.23l-8.93,9.67h.04Z"/>
    <path class="uuid-fde9d440-a0a5-4b61-8f70-6f9caba6eb09" d="M761.01,298.66h-15.99c-.84-.99-2.14-2.4-3.92-3.87-1.86-1.52-5.84-4.77-7.23-3.95-1.04.62-1.18,3.84,3.72,16.37-.72,1.34-4.65,9.03-1.49,16.74,3.55,8.64,14.63,13.94,26.41,11.16,1.61,2.48,3.22,4.96,4.84,7.44v29.76l-5.21,3.35h10.04v-30.87h3.72c-.07,9.07-.14,18.13-.21,27.2-4.11,2.23-4.78,3.2-4.63,3.68.23.71,2.42.67,3.91.65,2-.03,3.62-.37,4.69-.65v-38.5c1.72-22.97,14.73-37.76,25.26-37.38,9.58.34,18.09,13.25,21.47,22.07,2.34,6.1,2.74,11.62,2.71,15.31v35.52l-3.72,2.98h7.81v-37.2l4.46.37v34.59l-2.6,2.23h7.44v-41.29c4.81-7.12,10.73-17.76,14.4-31.66,3.49-13.21,5.98-22.63,3.11-34.09-2.43-9.69-7.62-16.53-4.49-20.55,1.96-2.51,6.12-2.57,9.3-2.23.54-1.29.24-2.78-.74-3.72-.88-.84-2.17-1.12-3.35-.74-1.66,0-4.7.26-7.44,2.23-5.71,4.12-5.3,12.22-5.21,14.13.33,6.67,3.67,10.95,5.21,13.76,3.5,6.38,4.72,17.86-7.07,40.17-11.93-36.43-31.06-58.64-43.89-56.17-10.16,1.96-20.1,20.12-22.32,24.18-3.53,6.45-5.52,12.36-6.7,16.74-1.05-5.46-2.16-6.63-2.98-6.7-1.1-.08-1.78,1.84-4.09,4.46-1.92,2.18-3.87,3.6-5.21,4.46v.02Z"/>
    <path class="uuid-fde9d440-a0a5-4b61-8f70-6f9caba6eb09" d="M816.81,111.93l-21.2-10.04c-1.1-2.28-3.27-5.8-7.07-7.07-1.3-.43-5-1.34-15.98,5.23-7.62,4.56-9.68,7.29-17.3,12.52-6.05,4.15-9.82,5.91-13.73,8.12-13.95,7.89-19.86,16.06-34.08,29.18-6.73,6.21-16.87,14.97-30.5,24.55,8.18-2.23,16.37-4.46,24.55-6.7-4.41,4.29-9.6,8.85-15.62,13.39-7.66,5.77-15.02,10.27-21.57,13.76,3.84-1.24,7.69-2.48,11.53-3.72l-6.7,8.93,16.74-8.93-9.3,10.79,13.39-8.93-3.35,7.07c4.6-3.94,9.76-8.97,14.88-15.25,3.94-4.84,7.12-9.52,9.67-13.76,2.6,1.74,5.21,3.47,7.81,5.21-.12,1.49-.11,3.9.91,6.59,1.99,5.24,6.35,7.68,7.62,8.33,3.23.07,6.47.14,9.7.22-5.05.38-9.72-1.62-12.1-5.37-1.46-2.3-1.67-4.66-1.67-6.04,1.9-1.14,5.02-2.99,8.93-5.21,19.36-10.99,25.37-12.41,35.34-20.46,5.58-4.51,8.55-6.9,11.44-11.39,1.65-2.56,7.71-12,9.48-21.32.22-1.18.75-4.3,3.21-6.72,1.56-1.54,3.34-2.25,4.51-2.6,6.82-.12,13.64-.25,20.46-.37h0Z"/>
    <path class="uuid-6e09ba04-e121-4b22-9bb1-e9ea2d00ea7c" d="M801.19,148.23c3.22-2.3,7.19-4.77,11.93-7.03,6.4-3.05,12.31-4.8,17.08-5.84.16.74,2.81,11.66,13.67,15.59,10.36,3.75,19.04-2.18,19.81-2.72-.46-.84-.92-1.85-1.3-3.01-.8-2.41-.95-4.57-.93-6.14.18.3,2.04,3.24,5.67,3.53,4.08.33,6.5-3.01,6.6-3.16,0,.03-1.22,4.78-1.22,4.81,0,.02-1,3.95-1.01,3.97,3.27-.09,9.21-.71,15.34-4.31,11.35-6.65,14.53-18.29,15.16-20.83,1.37,1.87,3.95,4.73,7.9,5.77,2.04.53,3.66.37,9.58-.56,3.1-.49,6.86-1.1,11.16-1.86-2.53.94-9.69,3.99-13.95,11.62-1.68,3.01-2.44,5.9-2.79,8.09-1.13-.29-11.13-2.64-19.48,4.09-6.39,5.16-9.34,13.64-7.67,21.94-2.96-2.95-5.77-4.82-7.72-5.95-4.09-2.37-6.74-3.9-10.02-3.26-3.59.71-5.87,3.62-6.53,4.47-1.47,1.88-2.12,3.77-2.42,4.93-.33-.84-4.97-12.23-16.65-14.51-7.12-1.39-12.84,1.4-14.69,2.4-.38-1.89-1.66-7-6.23-10.68-5.64-4.54-14-5.06-21.3-1.36h.01Z"/>
    <path class="uuid-6e09ba04-e121-4b22-9bb1-e9ea2d00ea7c" d="M849.47,203.91c-1.3-1.68-2.96-3.56-5.04-5.45-2.82-2.55-5.58-4.36-7.87-5.63-.2.35-3.24,5.55-9.42,5.9-5.9.33-9.44-4.05-9.75-4.45.36-.36.76-.81,1.13-1.34.78-1.11,1.19-2.2,1.42-3.01-.14.13-1.55,1.35-3.46.94-2.15-.46-2.87-2.55-2.9-2.64,0,.02-.11,2.64-.11,2.66,0,0-.09,2.18-.09,2.19-1.66-.55-4.62-1.79-7.21-4.58-4.8-5.17-4.64-11.63-4.57-13.03-.99.75-2.76,1.82-4.95,1.74-1.13-.04-1.94-.37-4.83-1.76-1.52-.73-3.35-1.62-5.44-2.67,1.15.87,4.36,3.54,5.37,8.12.4,1.81.34,3.4.19,4.58.62.03,6.12.36,9.37,5.1,2.49,3.63,2.69,8.44.56,12.45,1.97-1.06,3.71-1.59,4.88-1.87,2.46-.59,4.06-.97,5.65-.13,1.73.92,2.46,2.76,2.67,3.3.47,1.19.51,2.26.48,2.9.3-.38,4.44-5.51,10.78-4.88,3.87.38,6.38,2.7,7.17,3.5.48-.91,1.93-3.34,4.84-4.52,3.6-1.46,7.97-.44,11.14,2.58h-.01Z"/>
    <rect class="uuid-e8c9148a-c87a-442d-a638-a090ea44b743" x="641.05" y="375.66" width="252.75" height="3.44"/>
    <path class="uuid-e8c9148a-c87a-442d-a638-a090ea44b743" d="M649.89,378.17c.03-3.22.06-6.45.09-9.67l3.63,4.44v-17.83l3.35,16.46,3.91-6.7v10.95l2.79-8.16,1.67,4.18v-16.74l2.51,15.34,2.79-4.21-1.39,11.14h5.3v-9.44l2.51,4.18,1.95-5.88,1.65,7.28,2.81-18.41,1.39,13.11,2.23-3.91v13.07l1.86-.88.93-18.6,1.21,14.41,2.23-4.37v10.14c-14.48.03-28.95.06-43.43.09h.01Z"/>
    <polygon class="uuid-e8c9148a-c87a-442d-a638-a090ea44b743" points="857.26 377.38 857.26 363.2 860.33 369.05 868.98 348.97 865.06 369.61 878.74 350.08 872.05 369.61 887.39 355.11 877.07 370.45 891.85 360.96 882.65 371.84 893.81 369.05 885.16 377.38 857.26 377.38"/>
    <rect class="uuid-924d941c-8c07-4269-8db5-9cff40062102" x="743.25" y="312.31" width="6.32" height="3.35" rx=".79" ry=".79"/>
    <rect class="uuid-924d941c-8c07-4269-8db5-9cff40062102" x="759.28" y="312.28" width="6.32" height="3.35" rx=".79" ry=".79"/>
  </g>
  <g id="uuid-b6a20289-5f96-4d63-947a-1501399c456c" data-name="Layer 5">
    <circle class="uuid-8359c385-971f-4b82-8ef9-ff5d4db4eb9d" cx="1295.89" cy="241.21" r="241.21"/>
    <circle class="uuid-7b7c2dc4-a747-4543-87b7-01b77a807a7e" cx="1296.21" cy="240.79" r="234.13"/>
    <circle class="uuid-184b1f3f-1163-4637-9458-b3ad832efcad" cx="1296.64" cy="240.94" r="227.85"/>
    <circle class="uuid-1ecda961-422c-462f-b6c6-87b34c712b0f" cx="1297" cy="240.91" r="221.28"/>
    <ellipse class="uuid-a2e153eb-b833-4153-906b-7461bbacff99" cx="1222.16" cy="142.41" rx="46.68" ry="46.15"/>
    <path class="uuid-a2e153eb-b833-4153-906b-7461bbacff99" d="M1302.54,88.81c-9.13-12.78-39.56-1.69-51.55,3-33.52,14.16-65.63,32.93-92.69,57.4-9.72,9.39-19.62,19.62-24.55,32.39-2.41,6.27-2.09,13.76,5.06,16.47,15.8,5.65,43.51-5.6,58.49-12.22,28.91-13.4,56.06-30.9,79.92-52.04,9.55-8.76,32.76-31.19,25.32-44.99h0ZM1302.8,88.65c4.65,8.24-1.87,18.61-6.32,25.6-25.79,35.87-69.95,63.68-110.77,79.51-58.32,21.42-73.74-2.26-28.07-45.26,33.07-30.64,74.38-57.46,119.38-65.37,8.26-.94,20.41-2.24,25.78,5.52h0Z"/>
    <path class="uuid-a2e153eb-b833-4153-906b-7461bbacff99" d="M1295,92.55c-8.23-11.29-35.63-.87-46.28,3.38-30,12.98-58.86,29.73-83.32,51.55-8.8,8.37-17.74,17.48-22.37,28.86-2.25,5.5-2.14,12.34,4.35,14.58,13.94,4.72,39.22-5.67,52.4-11.61,25.92-12.16,50.27-27.86,71.87-46.67,8.57-7.76,29.84-27.73,23.35-40.08h0ZM1295.26,92.39c4.12,7.42-2.02,16.71-6.04,22.93-23.7,32.23-62.82,56.85-99.7,71.42-52.74,19.68-66.45-1.24-24.78-39.98,30.16-27.64,66.5-51.37,107.26-58.97,7.38-.9,18.39-2.33,23.26,4.6h0Z"/>
    <path class="uuid-a2e153eb-b833-4153-906b-7461bbacff99" d="M1289.4,97.02c-11.92-14.19-66.42,18.04-79.77,26.05-12.48,7.58-24.68,15.78-35.72,25.37-8.08,7.24-16.2,15.04-21.17,24.78-2.27,4.62-3.25,10.87,3.1,12.34,15.03,3.05,42.44-10.45,56.06-17.6,12.85-6.89,25.28-14.61,37.15-23.08,11.79-8.53,23.52-17.46,33.05-28.55,3.82-4.73,10.5-13.09,7.3-19.31h0ZM1289.66,96.86c3.4,6.32-3.3,14.97-6.9,19.99-22.96,28.18-56.25,49.07-89.46,63.19-47.89,19.31-59.34,2.22-20.03-32.33,27.44-24.12,59.42-45.04,95.4-53.38,6.15-1.05,16.76-3.27,20.99,2.53h0Z"/>
    <path class="uuid-d02ae6d3-3d10-4770-ac9f-801ab318ad84" d="M1259.23,232.3c-.75,1.49-1.64,3.78-1.69,6.6-.05,3.25,1.03,6.13,5.7,12.89,5,7.24,7.62,11.04,12.7,15.57,5.51,4.91,10.46,7.59,13.25,9.08,6.86,3.66,12.32,6.48,19.38,5.89,3.39-.29,6.07-1.27,7.74-2.01,34.14-40.37,68.29-80.73,102.43-121.1,2.53-9.23,4.86-20.12,6.26-32.45,1.23-10.79,1.52-20.63,1.33-29.25,3.5-3.96,6.99-7.92,10.49-11.88,1.16.42,2.43.18,3.25-.61,1.12-1.09,1.04-2.88.27-3.97-1.15-1.61-3.88-1.76-5.11-.32-.73.85-.86,2.16-.39,3.37-3.43,3.98-6.87,7.96-10.3,11.94-8.16,1.76-14.66,3.14-18.7,3.99-17.49,3.69-22.2,4.57-28.97,7.22-6.92,2.7-12.23,5.77-15.62,7.93-34,39.04-68,78.08-102.01,117.13v-.02Z"/>
    <circle class="uuid-96da51a0-5a3d-4321-9f01-7112a0618293" cx="1378.49" cy="151.4" r="18.4"/>
    <circle class="uuid-d02ae6d3-3d10-4770-ac9f-801ab318ad84" cx="1378.49" cy="151.4" r="16.4"/>
    <circle class="uuid-96da51a0-5a3d-4321-9f01-7112a0618293" cx="1378.49" cy="151.4" r="10.92"/>
    <circle class="uuid-a2e153eb-b833-4153-906b-7461bbacff99" cx="1379.78" cy="137.78" r="2.71"/>
    <circle class="uuid-a2e153eb-b833-4153-906b-7461bbacff99" cx="1378.49" cy="165.06" r="2.71"/>
    <circle class="uuid-a2e153eb-b833-4153-906b-7461bbacff99" cx="1392.18" cy="152.14" r="2.71"/>
    <circle class="uuid-a2e153eb-b833-4153-906b-7461bbacff99" cx="1364.84" cy="151.4" r="2.71"/>
    <circle class="uuid-a2e153eb-b833-4153-906b-7461bbacff99" cx="1368.26" cy="160.61" r="2.71"/>
    <circle class="uuid-a2e153eb-b833-4153-906b-7461bbacff99" cx="1388.71" cy="160.61" r="2.71"/>
    <circle class="uuid-a2e153eb-b833-4153-906b-7461bbacff99" cx="1388.71" cy="142.41" r="2.71"/>
    <circle class="uuid-a2e153eb-b833-4153-906b-7461bbacff99" cx="1369.29" cy="141.64" r="2.71"/>
    <circle class="uuid-96da51a0-5a3d-4321-9f01-7112a0618293" cx="1348.48" cy="185.23" r="18.4"/>
    <circle class="uuid-d02ae6d3-3d10-4770-ac9f-801ab318ad84" cx="1348.48" cy="185.23" r="16.4"/>
    <circle class="uuid-96da51a0-5a3d-4321-9f01-7112a0618293" cx="1348.48" cy="185.23" r="10.92"/>
    <circle class="uuid-a2e153eb-b833-4153-906b-7461bbacff99" cx="1349.76" cy="171.61" r="2.71"/>
    <circle class="uuid-a2e153eb-b833-4153-906b-7461bbacff99" cx="1348.48" cy="198.89" r="2.71"/>
    <circle class="uuid-a2e153eb-b833-4153-906b-7461bbacff99" cx="1362.17" cy="185.97" r="2.71"/>
    <circle class="uuid-a2e153eb-b833-4153-906b-7461bbacff99" cx="1334.82" cy="185.23" r="2.71"/>
    <circle class="uuid-a2e153eb-b833-4153-906b-7461bbacff99" cx="1338.24" cy="194.44" r="2.71"/>
    <circle class="uuid-a2e153eb-b833-4153-906b-7461bbacff99" cx="1358.7" cy="194.44" r="2.71"/>
    <circle class="uuid-a2e153eb-b833-4153-906b-7461bbacff99" cx="1358.7" cy="176.24" r="2.71"/>
    <circle class="uuid-a2e153eb-b833-4153-906b-7461bbacff99" cx="1339.27" cy="175.47" r="2.71"/>
    <circle class="uuid-96da51a0-5a3d-4321-9f01-7112a0618293" cx="1319.13" cy="220" r="18.4"/>
    <circle class="uuid-d02ae6d3-3d10-4770-ac9f-801ab318ad84" cx="1319.13" cy="220" r="16.4"/>
    <circle class="uuid-96da51a0-5a3d-4321-9f01-7112a0618293" cx="1319.13" cy="220" r="10.92" transform="translate(890.67 1486.86) rotate(-80.78)"/>
    <circle class="uuid-a2e153eb-b833-4153-906b-7461bbacff99" cx="1320.42" cy="206.37" r="2.71"/>
    <circle class="uuid-a2e153eb-b833-4153-906b-7461bbacff99" cx="1319.13" cy="233.65" r="2.71"/>
    <circle class="uuid-a2e153eb-b833-4153-906b-7461bbacff99" cx="1332.82" cy="220.73" r="2.71"/>
    <circle class="uuid-a2e153eb-b833-4153-906b-7461bbacff99" cx="1305.47" cy="220" r="2.71"/>
    <circle class="uuid-a2e153eb-b833-4153-906b-7461bbacff99" cx="1308.9" cy="229.2" r="2.71" transform="translate(873 1484.48) rotate(-80.78)"/>
    <circle class="uuid-a2e153eb-b833-4153-906b-7461bbacff99" cx="1329.35" cy="229.2" r="2.71"/>
    <circle class="uuid-a2e153eb-b833-4153-906b-7461bbacff99" cx="1329.35" cy="211" r="2.71"/>
    <circle class="uuid-a2e153eb-b833-4153-906b-7461bbacff99" cx="1309.92" cy="210.23" r="2.71"/>
    <path class="uuid-d02ae6d3-3d10-4770-ac9f-801ab318ad84" d="M1339.27,257.28l-18.86,22.6c2.5,2.06,6.8,6.17,9.75,12.76,3.84,8.58,3.14,16.36,2.65,19.63,4.38-7.05,13.77-24.53,9.6-44.93-.75-3.69-1.86-7.05-3.15-10.05h.01Z"/>
    <path class="uuid-d02ae6d3-3d10-4770-ac9f-801ab318ad84" d="M1278.73,205.9c-6.37,7.25-12.74,14.5-19.1,21.76-3.2-2.26-8.04-5.12-14.43-7.03-8.88-2.65-16.54-2.21-21.01-1.59,5.77-4.85,22.19-17.29,43.38-15.43,4.1.36,7.84,1.21,11.16,2.3h0Z"/>
    <path class="uuid-a2e153eb-b833-4153-906b-7461bbacff99" d="M1232.86,279.43c-31.46,20.77-46.18,33.17-44.16,37.21,1.38,2.76,10.56,1.61,27.55-3.43-43.87,59.47-61.39,86.87-58.46,89.3,2.89,2.4,26.02-19.34,75.07-72.13-1.8,20.15-1.15,30.61,1.96,31.4,3.98,1.01,12-13.87,24.04-44.65,4.32,30.77,8.57,46.14,12.76,46.12,5.17-.02,10.24-23.57,15.21-70.65-1.94-4.94-5.8-12.9-13.25-20.61-8.21-8.49-16.95-12.71-22.04-14.72-32.14,10.42-47.85,17.29-47.14,20.61.53,2.45,10.01,2.97,28.46,1.55Z"/>
    <path class="uuid-96da51a0-5a3d-4321-9f01-7112a0618293" d="M1278.21,210.36c4.19,7.32,10.84,17.04,21.02,26.54,12.98,12.1,26.19,18.69,34.99,22.24-.5.64-.99,1.29-1.49,1.93-9.05-3.85-22.18-10.73-35.11-22.86-9.88-9.27-16.56-18.69-20.93-26.02.51-.61,1.02-1.22,1.52-1.83h0Z"/>
  </g>
  <g id="uuid-fe0e9b6d-bf4d-47e8-bc8b-f6b468527a18" data-name="Layer 6">
    <circle class="uuid-8359c385-971f-4b82-8ef9-ff5d4db4eb9d" cx="1017.01" cy="775.17" r="241.21"/>
    <circle class="uuid-7b7c2dc4-a747-4543-87b7-01b77a807a7e" cx="1017.33" cy="774.75" r="234.13"/>
    <circle class="uuid-184b1f3f-1163-4637-9458-b3ad832efcad" cx="1017.76" cy="774.9" r="227.85"/>
    <circle class="uuid-269e2c15-1cbc-4312-bcd8-3d47cf042a0f" cx="1018.12" cy="774.87" r="221.28"/>
    <rect class="uuid-f51d80a8-01c6-4ae0-ad18-5c7988ed8d05" x="1046.02" y="642.85" width="27.92" height="40.39"/>
    <rect class="uuid-f51d80a8-01c6-4ae0-ad18-5c7988ed8d05" x="978.54" y="730.97" width="58.53" height="51.33"/>
    <path class="uuid-49fd8d43-6bc0-44cb-98e7-d9a50df566e7" d="M998.41,627.38c-14.27,4.37-23.11,17.92-21.53,30.95,1.89,15.51,18.24,27.77,36.03,24.22,4.48.38,11.33.9,19.7,1.23,47.94,1.89,59.09-5.79,78.81,1.46,4,1.47,27.91,10.74,36.72,34.87,7.48,20.49,1.16,43.67-11.83,57.97-10.18,11.2-26.15,18.83-41.01,20.03-7.25.59-11.39-.58-19.45,1.92-3.37,1.05-16.03,4.98-23.28,16.08-7.9,12.09-1.48,20.59-8.42,31.93-5.2,8.49-14.38,12.82-22.95,15.17-.03-3.45-.56-15.13-9.34-24.59-7.62-8.2-17.24-10.22-20.71-10.76-20.4-3.16-27.99,13.83-45.22,10.09-13.75-2.99-21.21-16.49-22.87-19.51-.69-1.24-11-20.47-3.41-33.35,12.25-20.79,64.65-14.2,86.64-11.44,18.08,2.27,36.48-.63,54.67.39,1.7.1,7.29.43,12.78-2.69,5.79-3.28,11.43-10.38,10.76-18.16-.57-6.61-5.46-10.98-6.76-12.14-10.94-9.76-28.83-5.53-55.8-1.32-57.25,8.94-72.66,4.87-79.38,2.69-7.01-2.27-19.53-6.5-30.27-18.16-13.55-14.7-20.02-36.59-15.47-57.85.82-3.83,6.89-30.07,32.29-43.73,21.41-11.51,48.16-9.56,69.29,4.71Z"/>
    <polygon class="uuid-a7a43af8-1eca-453a-82b2-2a31dff4207a" points="1031.37 642.85 1059.98 615.19 1086.54 642.85 1031.37 642.85"/>
    <rect class="uuid-f51d80a8-01c6-4ae0-ad18-5c7988ed8d05" x="968.68" y="695.32" width="81.11" height="53.45" rx="12" ry="12"/>
    <polygon class="uuid-a7a43af8-1eca-453a-82b2-2a31dff4207a" points="957.57 707.65 1009.79 657.16 1058.28 707.65 957.57 707.65"/>
    <circle class="uuid-36674a6a-51f1-44c0-be28-4b81e23ac065" cx="918.56" cy="785.04" r="14.82"/>
    <circle class="uuid-36674a6a-51f1-44c0-be28-4b81e23ac065" cx="894.31" cy="823.98" r="6.22"/>
    <circle class="uuid-36674a6a-51f1-44c0-be28-4b81e23ac065" cx="1138.34" cy="811.03" r="6.73"/>
    <circle class="uuid-36674a6a-51f1-44c0-be28-4b81e23ac065" cx="1122.63" cy="628" r="15.7"/>
    <polygon class="uuid-4c3fb6fd-6355-4485-8687-50ec8f74d18f" points="877.14 728.3 883.23 740.65 896.87 742.63 887 752.25 889.33 765.83 877.14 759.42 864.94 765.83 867.27 752.25 857.41 742.63 871.04 740.65 877.14 728.3"/>
    <polygon class="uuid-4c3fb6fd-6355-4485-8687-50ec8f74d18f" points="1097.97 816.75 1104.07 829.11 1117.7 831.09 1107.84 840.7 1110.17 854.28 1097.97 847.87 1085.78 854.28 1088.11 840.7 1078.24 831.09 1091.88 829.11 1097.97 816.75"/>
    <polygon class="uuid-4c3fb6fd-6355-4485-8687-50ec8f74d18f" points="1166.5 660.48 1172.6 672.83 1186.23 674.81 1176.37 684.43 1178.69 698.01 1166.5 691.6 1154.31 698.01 1156.64 684.43 1146.77 674.81 1160.4 672.83 1166.5 660.48"/>
    <circle class="uuid-36674a6a-51f1-44c0-be28-4b81e23ac065" cx="943.86" cy="670.09" r="6.22"/>
    <path class="uuid-f51d80a8-01c6-4ae0-ad18-5c7988ed8d05" d="M877.14,917.16l10.95-27.43c28.16,4.18,48.31.46,61.89-4.04,7.31-2.42,19.53-7.33,36.33-6.73,17.02.61,23.71,6.35,25.56,8.07,7.11,6.61,8.83,15.36,9.34,19.28,1.09-4.36,4-13.32,12.18-19.95,5.55-4.5,12.04-6.74,20.82-7.74,25.64-2.94,37.88,8.38,65.96,11.78,8,.97,19.96,1.62,34.98-.67,3.78,9.14,7.56,18.28,11.35,27.43h-289.36Z"/>
    <polygon class="uuid-f51d80a8-01c6-4ae0-ad18-5c7988ed8d05" points="996.85 910.94 1009.24 930.77 1037.07 930.77 1049.8 910.94 996.85 910.94"/>
    <line class="uuid-01b7a8ca-7e09-4c6c-9e93-b41fb36ae319" x1="860.82" y1="917.16" x2="919.08" y2="917.16"/>
    <circle class="uuid-36674a6a-51f1-44c0-be28-4b81e23ac065" cx="942.16" cy="917.16" r="6.22"/>
    <polyline class="uuid-01b7a8ca-7e09-4c6c-9e93-b41fb36ae319" points="968.68 917.16 1000.74 917.16 1009.24 930.77 1034.07 930.77 1044.31 917.16 1177.36 917.16"/>
    <rect class="uuid-4c3fb6fd-6355-4485-8687-50ec8f74d18f" x="989.67" y="728.3" width="12.49" height="18.76" rx="5.98" ry="5.98"/>
    <rect class="uuid-4c3fb6fd-6355-4485-8687-50ec8f74d18f" x="1014.72" y="728.3" width="12.49" height="18.76" rx="5.98" ry="5.98"/>
  </g>
  <g id="uuid-43537830-37f6-4be1-b2ba-161b5d0928e6" data-name="Layer 4">
    <circle class="uuid-8359c385-971f-4b82-8ef9-ff5d4db4eb9d" cx="241.2" cy="242.03" r="241.2"/>
    <circle class="uuid-7b7c2dc4-a747-4543-87b7-01b77a807a7e" cx="241.5" cy="241.63" r="234.1"/>
    <circle class="uuid-184b1f3f-1163-4637-9458-b3ad832efcad" cx="242" cy="241.73" r="227.9"/>
    <circle class="uuid-02bfdb48-8749-4f6e-afca-9f552d980bef" cx="242.3" cy="241.73" r="221.3"/>
    <path class="uuid-280535ab-5ef2-42f3-adbf-8e37ace9a719" d="M389.6,156.23c-2.1-10.5-7.4-36.6-29.8-52.9-21.2-15.4-52-18.2-77.4-5.5-29.6,14.7-38.5,43.7-40,48.8-1.5-5.1-10.4-34.1-40-48.8-25.4-12.6-56.3-9.9-77.4,5.5-22.4,16.3-27.7,42.4-29.8,52.9-18.7,92.3,136,215.3,147.2,224.1,11.1-8.8,165.9-131.9,147.2-224.1h0Z"/>
    <path class="uuid-280535ab-5ef2-42f3-adbf-8e37ace9a719" d="M384,337.33c1.7-1.8,5.8-6.2,5.9-12.5.1-6-3.5-12-9.2-15.1-6.6-3.5-13.2-1.4-14.3-1,.8-1,4.9-6.4,3.8-13.9-1-6.4-5.6-11.7-11.2-13.6-6-2-11.5.5-13.8,1.5-19.6,8.7-21.9,53.6-22.1,56.9,3.1.9,46.3,13.3,60.9-2.3h0Z"/>
    <path class="uuid-280535ab-5ef2-42f3-adbf-8e37ace9a719" d="M128.2,266.33c-1.2-.7-4.3-2.4-7.9-1.6-3.4.8-6.3,3.7-7.3,7.3-1.1,4.2,1,7.7,1.4,8.2-.6-.3-4.3-1.9-8.4-.2-3.5,1.5-5.9,4.8-6.2,8.3-.3,3.7,1.8,6.5,2.7,7.6,7.7,9.9,33.4,5,35.3,4.6.3-1.9,1.3-28.1-9.6-34.2h0Z"/>
    <path class="uuid-96da51a0-5a3d-4321-9f01-7112a0618293" d="M165.7,306.93c-.9-.4-2.7-1-4.9-.7-4.1.5-6.2,3.7-6.6,4.2-4.5-5.3-11.8-6.2-16.1-3-4.5,3.3-4.1,9.6-4,10.1-7.7.5-12.5,7.2-11.6,12.6,1,5.5,8.2,10.1,15.6,7.5,0,.7.5,7.6,6.2,11.1,5.3,3.2,13,2,17.9-3.5,1.5,1.1,6.6,4.8,14.1,4.5,6.5-.2,11-3.3,12.6-4.5,8.7,5.5,18.4,6.1,24.6,1.5,1.4-1,3.5-3,5-6.5,9.1,2.7,16.9-2.8,17.6-8,.6-4.5-3.8-10.3-11.1-12.1-.7-1.4-3.3-6.2-9.1-8.5-8-3.3-15.3.9-16.1,1.4-.5-1-5.2-9.6-15.6-11.4-10.4-2.1-17.7,4.5-18.5,5.3h0Z"/>
    <path class="uuid-96da51a0-5a3d-4321-9f01-7112a0618293" d="M273.4,339.73c-1.2-.5-3.5-1.3-6.5-.9-5.3.7-8.2,4.9-8.7,5.6-6-7-15.5-8.2-21.2-4-5.9,4.4-5.4,12.7-5.3,13.3-10.1.6-16.5,9.5-15.2,16.6,1.3,7.2,10.8,13.4,20.6,10,.1.9.7,10.1,8.1,14.6,7,4.3,17.1,2.6,23.7-4.6,1.9,1.5,8.8,6.3,18.6,5.9,8.6-.3,14.5-4.4,16.6-5.9,11.5,7.2,24.3,8,32.5,2,1.8-1.4,4.6-3.9,6.6-8.6,12.6,3.1,22.5-3.5,23.2-9.7.6-4.9-4.4-11-12.1-14.1-.6-1.5-4.4-10.3-14.5-14-10.8-4-20,1.1-21.2,1.8-.7-1.3-6.8-12.7-20.6-15.1-13.8-2.6-23.5,6.1-24.6,7.1h0Z"/>
    <path class="uuid-fde9d440-a0a5-4b61-8f70-6f9caba6eb09" d="M258.5,181.43c-3.6-2.2-8.1-2.2-11.3,0-3.3,2.3-4.1,5.9-4.2,6.7-4.9-5.6-12.8-5.6-16.2-2.1-3.6,3.6-3.3,12.1,3.2,16.8-3.8,7.7-13.3,9.9-19.3,5.9s-7.4-13.8-1.7-20.1c-.1-.3-3.3-6,0-11.8,2.2-3.8,6.4-6.1,10.9-5.9.1-.3,1.8-6.9,8.4-8.8,6.3-1.9,11.2,2.2,11.5,2.5,4.5-3,10.3-3.2,14.5-.4,5.2,3.5,7.2,10.9,4.2,17.2h0Z"/>
    <circle class="uuid-fde9d440-a0a5-4b61-8f70-6f9caba6eb09" cx="250.9" cy="196.33" r="2.8"/>
    <path class="uuid-fde9d440-a0a5-4b61-8f70-6f9caba6eb09" d="M216.1,219.23l-28.9-30.6c-1.1.8-3.8,2.9-5,6.7-2,6.2,1.7,11.6,2.1,12.2-3.8-1.2-7.6-2.4-11.3-3.6-.4,1.7-.9,5.1.4,9,2.3,7,8.5,9.9,9.6,10.5-3.6.8-7.3,1.7-10.9,2.5.7,2,2.2,5.3,5.4,8,8.1,6.6,19,2.8,19.7,2.5-4.2,1.7-5.9,6.4-4.2,9.6,1.4,2.6,4.9,4,8,2.9,3.2-1.1,5.1-4.5,4.3-8-.7-.8-4.3-4.8-3.7-10.1.7-5.9,6.6-11.2,14.5-11.6h0Z"/>
    <path class="uuid-fde9d440-a0a5-4b61-8f70-6f9caba6eb09" d="M242.1,224.23c-1.2-1.1-3-2.4-5.4-3.5-3.4-1.5-6.5-1.8-8.4-1.8-.6.3-1.4.9-2.2,1.8-1.2,1.3-1.7,2.7-2,3.5,2.9.9,6.7,1.7,11.2,1.7,2,0,3.8-.2,5.4-.4.5-.4.9-.8,1.4-1.3h0Z"/>
    <path class="uuid-fde9d440-a0a5-4b61-8f70-6f9caba6eb09" d="M240.4,238.43l-28.2,4.1c-.7,3.3-2.1,5.2-3.2,6.3-1.7,1.7-3.1,1.9-5.6,4.2-1.3,1.2-2.5,2.3-3.4,3.9-1.4,2.6-1.1,5.2-1,6.7.5,4.8,2.7,19.2,6.3,38.6h3.9l10.9-25.6c-6.2-3.4-9.8-9.8-9.1-16.2.8-6.6,5.8-10.3,6.7-11,.8,1,1.7,2,2.5,3-.4.3-5.2,3.5-5.3,9.2-.1,4.6,2.8,9,7.3,10.9-.4,1.4-.8,2.7-1.3,4.1,1.8,2.9,3.9,6,6.1,9.1,4.7,6.4,9.4,11.9,14,16.5h3.6c-1.5-8.1-2.9-16.6-3.9-25.6-.4-3.5-.8-6.9-1.1-10.2,2-1.2,7.2-4.5,10.4-11.2,2.8-5.8,2.7-11,2.5-13.4-.8.3-4,1.4-7.6.1-2.3-1-3.9-2.7-4.5-3.5h0Z"/>
    <circle class="uuid-fde9d440-a0a5-4b61-8f70-6f9caba6eb09" cx="217.1" cy="298.33" r="3.9"/>
    <circle class="uuid-fde9d440-a0a5-4b61-8f70-6f9caba6eb09" cx="250.9" cy="298.33" r="3.9"/>
    <path class="uuid-fde9d440-a0a5-4b61-8f70-6f9caba6eb09" d="M297.9,230.03h-8.1c-.8-4.3-4.3-7.6-8.7-8-1.9-19-9-33.3-13.8-41.3-.8.6-1.6,1.2-2.4,1.8,4.2,7.4,10.9,21.2,12.7,39.8-3.6,1-6.4,3.9-7,7.6h-11.6v3.7h11.7c.7,3.6,3.5,6.6,7,7.5-1.9,19.1-9,33.2-12.7,39.7l2.4,2.4c3.8-6.4,11.7-21.4,13.8-41.8,4.4-.4,7.9-3.6,8.8-7.9h8.1v-3.5h-.2Z"/>
    <path class="uuid-ae5e2130-4a1f-4fc2-ab73-7c54afe01ee2" d="M309.8,225.93c-2.6-2.1-4.5-3.7-6.7-3.2-1.3.3-2.5,1.3-3,2.5-.8,2.1.5,5.2,3.6,6.9-3.1,1.7-4.5,4.7-3.6,6.9.5,1.2,1.7,2.2,3,2.5,2.1.5,4.1-1.1,6.7-3.2,1.5-1.3,3.6-3.2,5.7-6.1-2.1-3-4.2-5-5.7-6.3h0Z"/>
  </g>
  <g id="uuid-2ad7783f-cacf-4ef5-a8f4-cde5f558b9ce" data-name="Layer 3">
    <circle class="uuid-8359c385-971f-4b82-8ef9-ff5d4db4eb9d" cx="470.6" cy="775.54" r="241.21"/>
    <circle class="uuid-7b7c2dc4-a747-4543-87b7-01b77a807a7e" cx="470.92" cy="775.12" r="234.13"/>
    <circle class="uuid-184b1f3f-1163-4637-9458-b3ad832efcad" cx="471.35" cy="775.27" r="227.85"/>
    <circle class="uuid-81cbd5bd-e8b9-46a0-8278-7d1c47a99e5c" cx="471.71" cy="775.24" r="221.28"/>
    <circle class="uuid-30f46b14-c226-4eeb-a35a-f2a642dc22d7" cx="411.1" cy="717.36" r="79.28"/>
    <path class="uuid-759fc627-2054-4fe9-b1f7-f78b5b3cc527" d="M433.81,657.53c-35.02-6.35-68.67,15.28-77.09,47.63-7.59,29.16,6.87,61.09,35.29,75.52-33.01-11.72-51.65-45.17-45.32-75.4,7.39-35.26,47.46-59.89,87.12-47.75h0Z"/>
    <path class="uuid-e2be832d-2811-426f-b91c-e01bcb750880" d="M364.9,800.8c7.78,2.83,15.56,5.65,23.34,8.48-2.7,8.6-5.4,17.19-8.1,25.79l-26.53-8.6,11.29-25.67h0Z"/>
    <polygon class="uuid-e2be832d-2811-426f-b91c-e01bcb750880" points="351.35 832.12 377.78 841.22 377.05 844.47 350.39 835.38 351.35 832.12"/>
    <path class="uuid-e2be832d-2811-426f-b91c-e01bcb750880" d="M347.35,840.91l27.72,9.51-12.82,43.52c-4.57,8.64-14.94,12.1-23.08,8.36-7.1-3.26-11.25-11.43-9.66-19.69,5.95-13.9,11.9-27.8,17.84-41.7h0Z"/>
    <path class="uuid-fde9d440-a0a5-4b61-8f70-6f9caba6eb09" d="M394.94,699.88c-2.73-3.7,5.52-10.08,12.66-28.12,5.05-12.77,4.04-17.47,10.78-30.94,7.08-14.14,11.35-15.26,13.12-15.47,5.48-.65,11.38,4.48,15.94,8.44,3.23,2.81,5.3,5.42,10.31,8.44,3.23,1.94,4.84,2.91,6.43,2.99,5.66.3,8.48-6.97,17.61-16.84,7.23-7.81,13.01-14.06,19.55-13.34,5.71.63,9.51,6.3,12.19,10.31,4.23,6.33,4.09,9.9,7.5,22.03,4.75,16.92,7.13,25.38,12.19,33.75,3.44,5.69,6.55,9.18,5.16,11.72-1.99,3.61-11.3,1.95-15.83,1.22-15.36-2.47-28.56-2.27-54.98-1.86-15.56.24-30.19.47-49.19,4.86-12.48,2.89-20.93,6.21-23.44,2.81Z"/>
    <path class="uuid-fde9d440-a0a5-4b61-8f70-6f9caba6eb09" d="M420.66,713.94c-3.57-.5-6.32-1.04-15.47-2.34-15.01-2.15-22.59-3.21-26.25-2.81-4.15.45-19.54,2.13-26.72,14.53-3.6,6.22-5.49,15.75-1.67,23.52,7.9,16.09,37.81,19.58,47.4,15.46.9-.39,3.71-1.73,5.84-.54,3.25,1.82,1.25,7.49,4.22,9.37,2.83,1.8,6.24-2.39,13.66-2.98,1.34-.11,2.7-.09,10.39,1.6,16.03,3.52,16.08,4.75,19.78,4.2,8.47-1.26,14.04-8.58,15-9.84,4.44-5.84,4.68-11.43,5.86-11.25,1.39.21,1.9,8.07.47,15.23-.86,4.29-1.66,8.28-4.69,12.19-2.32,3-4.58,4.17-7.97,9.14-1.84,2.7-2.76,4.08-2.39,5.27,1.14,3.66,10.65,1.62,12.94,6.45.96,2.03.45,4.86.23,6.09-.22,1.22-.49,1.78-.98,2.04-.84.45-1.79-.29-3.24-.75,0,0-1.76-.56-4.92-.17-2.84.35-4.27,2.1-7.27,4.51-5.86,4.7-10.12,5.82-9.84,6.56.26.69,4.06-.11,10.48-1.47,0,0,7.03-1.49,15.3-1.34.59.01,1.85.05,2.7.94.58.61.95,1.6.75,2.33-.49,1.82-4.53,2.02-8.6,2.59-6.61.92-13.99,2.9-13.95,3.98.07,1.74,19.3.88,20.51,6.09.3,1.28-.5,2.88-.59,3.05-1.15,2.26-3.63,3.08-5.27,3.63,0,0-1.28.43-11.84,4.24-6.01,2.17-9.39,3.38-9.72,5.61-.23,1.52,1.64,3.18,5.39,6.45,12.42,10.81,13.22,11.24,14.77,11.48,5.05.79,8.68-1.9,11.48.7,1.2,1.11,1.56,2.55,1.64,2.93.87,4-3.35,6.08-4.69,11.6-.82,3.39-.5,7.83.94,8.32,2.49.85,8.3-10.14,13.36-19.69,8.2-15.48,12.29-23.22,13.71-30.47,2.37-12.15-.17-18.13,5.51-26.95,3.25-5.05,7.87-8.96,8.09-9.14,6.3-5.28,8.89-4.14,13.48-8.44,5.76-5.4,7.66-12.79,8.55-16.29,1.35-5.27,4.21-10.38,4.07-15.82,0-.22-.05-1.14.5-1.52.42-.3.97-.12,1.64,0h3.05c2.02,0,4.84-.19,6.33-.35,4.53-.48,8.47-1.89,10.08-2.46,18.83-6.72,26.72-17.34,26.72-17.34,2.96-3.98,10.09-13.58,7.03-23.44-1.84-5.94-6.55-9.3-9.38-11.25-9.47-6.55-20.27-6.87-32.81-6.09-16.19,1.01-24.95,3.21-40.63,5.95-24.07,4.21-40.89,5.57-54.99,6.71-18.02,1.46-27.58,1.44-37.97,0l-.02-.02Z"/>
    <path class="uuid-fde9d440-a0a5-4b61-8f70-6f9caba6eb09" d="M406.6,780.5c-.91,1.28-3.81-.84-8.28,0-.94.18-4.84.91-5.63,3.12-.24.68-.7,2.97,7.81,10.47,2.85,2.51,6.79,5.66,14.53,10.78,6.42,4.25,8.64,5.24,12.66,8.91,4.73,4.32,6.12,7.04,6.56,7.97,2.14,4.49,1.8,8.31,1.87,11.72.12,5.69,1.96,10.82,5.63,21.09,4.5,12.6,10,21.17,13.59,26.72,6.58,10.15,5.25,5.24,14.69,15.78.54.61,2.12,2.38,3.59,2.03,1-.23,1.52-1.33,1.72-1.72,1.52-2.99,4.1-4.07,8.13-8.28,2.62-2.74,7.94-9.01,12.81-17.5,4.67-8.15,6.92-14.86,8.59-19.84,1.61-4.79,2.92-8.79,3.59-14.37.49-4.11.08-4.43.68-7.36.33-1.61,1.83-8.27,6.98-13.89,2.47-2.7,3.1-2.21,10.94-7.34,4.51-2.95,8.01-5.67,15-11.09,0,0,4.46-3.47,9.84-9.69,2.29-2.65,3.27-4.11,2.81-5.31-.75-1.98-5.23-2.74-8.59-2.34-2.79.33-4.2,1.37-5.47.47-1.08-.77-1.53-2.59-.94-3.75.69-1.34,2.6-1.5,5.31-1.72,1.57-.13,2.7-.07,5.62.16,4.32.33,6.5.51,7.19.78,3.46,1.38,5.17,4.61,5.63,5.47,2.12,4.01,1.46,8.18,0,14.53-2.04,8.9-3.06,13.35-5.78,20.62-3.07,8.2-6.08,14.28-9.37,20.94-1.38,2.78-3.21,6.23-6.88,13.12-5.44,10.24-6.9,12.64-8.75,15.31-1.82,2.63-3.45,4.71-3.28,4.84.25.21,4.45-4.39,7.03-7.34,5.62-6.42,8.43-9.63,10-12.5,2.33-4.26,5.62-8.02,7.5-12.5.1-.25.46-1.13,1.25-1.41.73-.26,1.47.12,1.88.31,1.74.83.61-.19,4.84,1.41,4.31,1.63,7.81,3.44,7.81,3.44,5.69,2.94,11.47,5.7,17.19,8.59,3.46,1.75,5.26,2.66,6.41,4.84,1.7,3.25.66,6.85.47,7.5-.96,3.32-3.22,5.34-4.06,6.09-.22.2-7.79,8.68-15.94,14.37-11.94,8.33-9.29,8.32-21.72,17.19-7.44,5.31-6.68,4.1-33.28,19.84,0,0-5.69,3.37-42.57,19.58-.45.2-1.59.68-3.05.58-1.74-.13-2.97-1.03-3.28-1.25-2.8-1.96-9.73-3.48-23.13-9.36-10.53-4.62-18.49-9.06-24.68-12.51-19.67-10.97-33.08-20.86-36.72-23.59-2.14-1.6-7.76-5.84-14.37-11.56-4.42-3.83-3.21-3.06-8.13-7.34-3.01-2.62-3.87-3.26-5-4.84-1.01-1.41-4.18-5.84-2.81-9.84.81-2.38,2.86-3.52,5.78-5.16,4.23-2.36,6.11-2,14.22-4.53,5.03-1.57,8.44-2.81,8.44-2.81,2.88-1.05,6.11-1.09,8.91-2.34.22-.1.92-.42,1.56-.16.74.31.99,1.24,1.09,1.56.6,1.98,2.31,3.43,3.44,5.16.86,1.32,1.33,1.7,6.88,7.34,5.14,5.23,7.71,7.85,7.97,8.12,2.38,2.54,3.24,3.58,3.44,3.44.42-.3-2.87-5.51-6.72-12.19-1.95-3.39-4.11-7.41-8.44-15.47-7.8-14.54-12.77-23.9-16.72-36.09,0,0-1.61-4.97-2.81-16.56-.51-4.88-.52-7.75,1.25-10.31,1.88-2.73,4.93-3.86,6.72-4.53,3.35-1.25,6.31-1.16,8.28-1.09,1.54.05,2.54.24,4.53.62,1.44.28,1.9.44,2.34.78,1.25.95,2.06,2.99,1.41,3.91v-.02Z"/>
  </g>
</svg>