<?xml version="1.0" encoding="UTF-8"?>
<svg id="uuid-d1a75e49-d42d-452c-ae86-a5edb48aaae6" data-name="Layer 3" xmlns="http://www.w3.org/2000/svg" viewBox="0 0 482.42 482.42">
  <defs>
    <style>
      .uuid-4e68a0ad-1d0e-454b-adcc-fedfddd452fe {
        fill: #58595b;
      }

      .uuid-4e68a0ad-1d0e-454b-adcc-fedfddd452fe, .uuid-a8f85996-61f1-425f-b039-67abef908e90, .uuid-3a327fb3-d4f1-4e41-a0ae-deac39a0bf89, .uuid-67381e20-da42-49f6-8f92-07ca6d14fccc, .uuid-2777be46-a5c7-4caa-ad27-c54e0e3decf4, .uuid-beb89274-6a92-467b-ac0c-4ff5f859af95, .uuid-8c3e243e-b371-4d3d-a2dc-30e7fc6bbb08 {
        stroke-width: 0px;
      }

      .uuid-3a327fb3-d4f1-4e41-a0ae-deac39a0bf89 {
        fill: #99f;
      }

      .uuid-7ee40b59-b4d8-4e72-8076-8893f1e42bbe {
        fill: none;
        stroke: #8b173c;
        stroke-miterlimit: 10;
        stroke-width: 20px;
      }

      .uuid-67381e20-da42-49f6-8f92-07ca6d14fccc {
        fill: #939598;
      }

      .uuid-2777be46-a5c7-4caa-ad27-c54e0e3decf4 {
        fill: #8b173c;
      }

      .uuid-beb89274-6a92-467b-ac0c-4ff5f859af95 {
        fill: #231f20;
      }

      .uuid-8c3e243e-b371-4d3d-a2dc-30e7fc6bbb08 {
        fill: #eff2be;
      }
    </style>
  </defs>
  <circle class="uuid-67381e20-da42-49f6-8f92-07ca6d14fccc" cx="241.03" cy="241.92" r="241.21"/>
  <circle class="uuid-4e68a0ad-1d0e-454b-adcc-fedfddd452fe" cx="241.35" cy="241.5" r="234.13"/>
  <circle class="uuid-beb89274-6a92-467b-ac0c-4ff5f859af95" cx="241.78" cy="241.65" r="227.85"/>
  <circle class="uuid-3a327fb3-d4f1-4e41-a0ae-deac39a0bf89" cx="242.14" cy="241.62" r="221.28"/>
  <circle class="uuid-7ee40b59-b4d8-4e72-8076-8893f1e42bbe" cx="181.53" cy="183.74" r="79.28"/>
  <path class="uuid-8c3e243e-b371-4d3d-a2dc-30e7fc6bbb08" d="M204.24,123.91c-35.02-6.35-68.67,15.28-77.09,47.63-7.59,29.16,6.87,61.09,35.29,75.52-33.01-11.72-51.65-45.17-45.32-75.4,7.39-35.26,47.46-59.89,87.12-47.75h0Z"/>
  <path class="uuid-2777be46-a5c7-4caa-ad27-c54e0e3decf4" d="M135.33,267.18c7.78,2.83,15.56,5.65,23.34,8.48-2.7,8.6-5.4,17.19-8.1,25.79l-26.53-8.6,11.29-25.67h0Z"/>
  <polygon class="uuid-2777be46-a5c7-4caa-ad27-c54e0e3decf4" points="121.78 298.5 148.21 307.6 147.48 310.85 120.82 301.76 121.78 298.5"/>
  <path class="uuid-2777be46-a5c7-4caa-ad27-c54e0e3decf4" d="M117.78,307.29l27.72,9.51-12.82,43.52c-4.57,8.64-14.94,12.1-23.08,8.36-7.1-3.26-11.25-11.43-9.66-19.69,5.95-13.9,11.9-27.8,17.84-41.7h0Z"/>
  <path class="uuid-a8f85996-61f1-425f-b039-67abef908e90" d="M165.37,166.26c-2.73-3.7,5.52-10.08,12.66-28.12,5.05-12.77,4.04-17.47,10.78-30.94,7.08-14.14,11.35-15.26,13.12-15.47,5.48-.65,11.38,4.48,15.94,8.44,3.23,2.81,5.3,5.42,10.31,8.44,3.23,1.94,4.84,2.91,6.43,2.99,5.66.3,8.48-6.97,17.61-16.84,7.23-7.81,13.01-14.06,19.55-13.34,5.71.63,9.51,6.3,12.19,10.31,4.23,6.33,4.09,9.9,7.5,22.03,4.75,16.92,7.13,25.38,12.19,33.75,3.44,5.69,6.55,9.18,5.16,11.72-1.99,3.61-11.3,1.95-15.83,1.22-15.36-2.47-28.56-2.27-54.98-1.86-15.56.24-30.19.47-49.19,4.86-12.48,2.89-20.93,6.21-23.44,2.81Z"/>
  <path class="uuid-a8f85996-61f1-425f-b039-67abef908e90" d="M191.09,180.32c-3.57-.5-6.32-1.04-15.47-2.34-15.01-2.15-22.59-3.21-26.25-2.81-4.15.45-19.54,2.13-26.72,14.53-3.6,6.22-5.49,15.75-1.67,23.52,7.9,16.09,37.81,19.58,47.4,15.46.9-.39,3.71-1.73,5.84-.54,3.25,1.82,1.25,7.49,4.22,9.37,2.83,1.8,6.24-2.39,13.66-2.98,1.34-.11,2.7-.09,10.39,1.6,16.03,3.52,16.08,4.75,19.78,4.2,8.47-1.26,14.04-8.58,15-9.84,4.44-5.84,4.68-11.43,5.86-11.25,1.39.21,1.9,8.07.47,15.23-.86,4.29-1.66,8.28-4.69,12.19-2.32,3-4.58,4.17-7.97,9.14-1.84,2.7-2.76,4.08-2.39,5.27,1.14,3.66,10.65,1.62,12.94,6.45.96,2.03.45,4.86.23,6.09-.22,1.22-.49,1.78-.98,2.04-.84.45-1.79-.29-3.24-.75,0,0-1.76-.56-4.92-.17-2.84.35-4.27,2.1-7.27,4.51-5.86,4.7-10.12,5.82-9.84,6.56.26.69,4.06-.11,10.48-1.47,0,0,7.03-1.49,15.3-1.34.59.01,1.85.05,2.7.94.58.61.95,1.6.75,2.33-.49,1.82-4.53,2.02-8.6,2.59-6.61.92-13.99,2.9-13.95,3.98.07,1.74,19.3.88,20.51,6.09.3,1.28-.5,2.88-.59,3.05-1.15,2.26-3.63,3.08-5.27,3.63,0,0-1.28.43-11.84,4.24-6.01,2.17-9.39,3.38-9.72,5.61-.23,1.52,1.64,3.18,5.39,6.45,12.42,10.81,13.22,11.24,14.77,11.48,5.05.79,8.68-1.9,11.48.7,1.2,1.11,1.56,2.55,1.64,2.93.87,4-3.35,6.08-4.69,11.6-.82,3.39-.5,7.83.94,8.32,2.49.85,8.3-10.14,13.36-19.69,8.2-15.48,12.29-23.22,13.71-30.47,2.37-12.15-.17-18.13,5.51-26.95,3.25-5.05,7.87-8.96,8.09-9.14,6.3-5.28,8.89-4.14,13.48-8.44,5.76-5.4,7.66-12.79,8.55-16.29,1.35-5.27,4.21-10.38,4.07-15.82,0-.22-.05-1.14.5-1.52.42-.3.97-.12,1.64,0h3.05c2.02,0,4.84-.19,6.33-.35,4.53-.48,8.47-1.89,10.08-2.46,18.83-6.72,26.72-17.34,26.72-17.34,2.96-3.98,10.09-13.58,7.03-23.44-1.84-5.94-6.55-9.3-9.38-11.25-9.47-6.55-20.27-6.87-32.81-6.09-16.19,1.01-24.95,3.21-40.63,5.95-24.07,4.21-40.89,5.57-54.99,6.71-18.02,1.46-27.58,1.44-37.97,0l-.02-.02Z"/>
  <path class="uuid-a8f85996-61f1-425f-b039-67abef908e90" d="M177.03,246.88c-.91,1.28-3.81-.84-8.28,0-.94.18-4.84.91-5.63,3.12-.24.68-.7,2.97,7.81,10.47,2.85,2.51,6.79,5.66,14.53,10.78,6.42,4.25,8.64,5.24,12.66,8.91,4.73,4.32,6.12,7.04,6.56,7.97,2.14,4.49,1.8,8.31,1.87,11.72.12,5.69,1.96,10.82,5.63,21.09,4.5,12.6,10,21.17,13.59,26.72,6.58,10.15,5.25,5.24,14.69,15.78.54.61,2.12,2.38,3.59,2.03,1-.23,1.52-1.33,1.72-1.72,1.52-2.99,4.1-4.07,8.13-8.28,2.62-2.74,7.94-9.01,12.81-17.5,4.67-8.15,6.92-14.86,8.59-19.84,1.61-4.79,2.92-8.79,3.59-14.37.49-4.11.08-4.43.68-7.36.33-1.61,1.83-8.27,6.98-13.89,2.47-2.7,3.1-2.21,10.94-7.34,4.51-2.95,8.01-5.67,15-11.09,0,0,4.46-3.47,9.84-9.69,2.29-2.65,3.27-4.11,2.81-5.31-.75-1.98-5.23-2.74-8.59-2.34-2.79.33-4.2,1.37-5.47.47-1.08-.77-1.53-2.59-.94-3.75.69-1.34,2.6-1.5,5.31-1.72,1.57-.13,2.7-.07,5.62.16,4.32.33,6.5.51,7.19.78,3.46,1.38,5.17,4.61,5.63,5.47,2.12,4.01,1.46,8.18,0,14.53-2.04,8.9-3.06,13.35-5.78,20.62-3.07,8.2-6.08,14.28-9.37,20.94-1.38,2.78-3.21,6.23-6.88,13.12-5.44,10.24-6.9,12.64-8.75,15.31-1.82,2.63-3.45,4.71-3.28,4.84.25.21,4.45-4.39,7.03-7.34,5.62-6.42,8.43-9.63,10-12.5,2.33-4.26,5.62-8.02,7.5-12.5.1-.25.46-1.13,1.25-1.41.73-.26,1.47.12,1.88.31,1.74.83.61-.19,4.84,1.41,4.31,1.63,7.81,3.44,7.81,3.44,5.69,2.94,11.47,5.7,17.19,8.59,3.46,1.75,5.26,2.66,6.41,4.84,1.7,3.25.66,6.85.47,7.5-.96,3.32-3.22,5.34-4.06,6.09-.22.2-7.79,8.68-15.94,14.37-11.94,8.33-9.29,8.32-21.72,17.19-7.44,5.31-6.68,4.1-33.28,19.84,0,0-5.69,3.37-42.57,19.58-.45.2-1.59.68-3.05.58-1.74-.13-2.97-1.03-3.28-1.25-2.8-1.96-9.73-3.48-23.13-9.36-10.53-4.62-18.49-9.06-24.68-12.51-19.67-10.97-33.08-20.86-36.72-23.59-2.14-1.6-7.76-5.84-14.37-11.56-4.42-3.83-3.21-3.06-8.13-7.34-3.01-2.62-3.87-3.26-5-4.84-1.01-1.41-4.18-5.84-2.81-9.84.81-2.38,2.86-3.52,5.78-5.16,4.23-2.36,6.11-2,14.22-4.53,5.03-1.57,8.44-2.81,8.44-2.81,2.88-1.05,6.11-1.09,8.91-2.34.22-.1.92-.42,1.56-.16.74.31.99,1.24,1.09,1.56.6,1.98,2.31,3.43,3.44,5.16.86,1.32,1.33,1.7,6.88,7.34,5.14,5.23,7.71,7.85,7.97,8.12,2.38,2.54,3.24,3.58,3.44,3.44.42-.3-2.87-5.51-6.72-12.19-1.95-3.39-4.11-7.41-8.44-15.47-7.8-14.54-12.77-23.9-16.72-36.09,0,0-1.61-4.97-2.81-16.56-.51-4.88-.52-7.75,1.25-10.31,1.88-2.73,4.93-3.86,6.72-4.53,3.35-1.25,6.31-1.16,8.28-1.09,1.54.05,2.54.24,4.53.62,1.44.28,1.9.44,2.34.78,1.25.95,2.06,2.99,1.41,3.91v-.02Z"/>
</svg>