<?xml version="1.0" encoding="UTF-8"?>
<svg id="uuid-aa1e355e-37f7-404d-912a-a8956c4fcd99" data-name="Layer 4" xmlns="http://www.w3.org/2000/svg" viewBox="0 0 482.42 482.42">
  <defs>
    <style>
      .uuid-a3950d95-503e-463f-8cfd-be7a367cfd58 {
        fill: #58595b;
      }

      .uuid-a3950d95-503e-463f-8cfd-be7a367cfd58, .uuid-ca783af6-f1a9-4cd8-bddf-fd4932cc2130, .uuid-a39a6a05-ea2f-49ba-be8e-9d8a6d4dab3e, .uuid-077cd3bc-7d37-47cb-8733-1cf3ec92d6f4, .uuid-c51cca3a-055c-4f81-81b0-110d6539a46d, .uuid-336a762c-13dc-4368-8675-1212b0fbcd74, .uuid-bd007f76-47bc-437a-a78b-a4e774b6e7e2, .uuid-ed1bf75b-04e4-4f6c-be63-0787639eba9b {
        stroke-width: 0px;
      }

      .uuid-a39a6a05-ea2f-49ba-be8e-9d8a6d4dab3e {
        fill: #ed1b53;
      }

      .uuid-077cd3bc-7d37-47cb-8733-1cf3ec92d6f4 {
        fill: #fff;
      }

      .uuid-c51cca3a-055c-4f81-81b0-110d6539a46d {
        fill: #939598;
      }

      .uuid-336a762c-13dc-4368-8675-1212b0fbcd74 {
        fill: #fcf;
      }

      .uuid-bd007f76-47bc-437a-a78b-a4e774b6e7e2 {
        fill: #231f20;
      }

      .uuid-ed1bf75b-04e4-4f6c-be63-0787639eba9b {
        fill: #d2a85a;
      }
    </style>
  </defs>
  <circle class="uuid-c51cca3a-055c-4f81-81b0-110d6539a46d" cx="241.69" cy="241.32" r="241.2"/>
  <circle class="uuid-a3950d95-503e-463f-8cfd-be7a367cfd58" cx="241.99" cy="240.92" r="234.1"/>
  <circle class="uuid-bd007f76-47bc-437a-a78b-a4e774b6e7e2" cx="242.49" cy="241.02" r="227.9"/>
  <circle class="uuid-336a762c-13dc-4368-8675-1212b0fbcd74" cx="242.79" cy="241.02" r="221.3"/>
  <path class="uuid-a39a6a05-ea2f-49ba-be8e-9d8a6d4dab3e" d="M390.09,155.52c-2.1-10.5-7.4-36.6-29.8-52.9-21.2-15.4-52-18.2-77.4-5.5-29.6,14.7-38.5,43.7-40,48.8-1.5-5.1-10.4-34.1-40-48.8-25.4-12.6-56.3-9.9-77.4,5.5-22.4,16.3-27.7,42.4-29.8,52.9-18.7,92.3,136,215.3,147.2,224.1,11.1-8.8,165.9-131.9,147.2-224.1h0Z"/>
  <path class="uuid-a39a6a05-ea2f-49ba-be8e-9d8a6d4dab3e" d="M384.49,336.62c1.7-1.8,5.8-6.2,5.9-12.5.1-6-3.5-12-9.2-15.1-6.6-3.5-13.2-1.4-14.3-1,.8-1,4.9-6.4,3.8-13.9-1-6.4-5.6-11.7-11.2-13.6-6-2-11.5.5-13.8,1.5-19.6,8.7-21.9,53.6-22.1,56.9,3.1.9,46.3,13.3,60.9-2.3h0Z"/>
  <path class="uuid-a39a6a05-ea2f-49ba-be8e-9d8a6d4dab3e" d="M128.69,265.62c-1.2-.7-4.3-2.4-7.9-1.6-3.4.8-6.3,3.7-7.3,7.3-1.1,4.2,1,7.7,1.4,8.2-.6-.3-4.3-1.9-8.4-.2-3.5,1.5-5.9,4.8-6.2,8.3-.3,3.7,1.8,6.5,2.7,7.6,7.7,9.9,33.4,5,35.3,4.6.3-1.9,1.3-28.1-9.6-34.2h0Z"/>
  <path class="uuid-077cd3bc-7d37-47cb-8733-1cf3ec92d6f4" d="M166.19,306.22c-.9-.4-2.7-1-4.9-.7-4.1.5-6.2,3.7-6.6,4.2-4.5-5.3-11.8-6.2-16.1-3-4.5,3.3-4.1,9.6-4,10.1-7.7.5-12.5,7.2-11.6,12.6,1,5.5,8.2,10.1,15.6,7.5,0,.7.5,7.6,6.2,11.1,5.3,3.2,13,2,17.9-3.5,1.5,1.1,6.6,4.8,14.1,4.5,6.5-.2,11-3.3,12.6-4.5,8.7,5.5,18.4,6.1,24.6,1.5,1.4-1,3.5-3,5-6.5,9.1,2.7,16.9-2.8,17.6-8,.6-4.5-3.8-10.3-11.1-12.1-.7-1.4-3.3-6.2-9.1-8.5-8-3.3-15.3.9-16.1,1.4-.5-1-5.2-9.6-15.6-11.4-10.4-2.1-17.7,4.5-18.5,5.3h0Z"/>
  <path class="uuid-077cd3bc-7d37-47cb-8733-1cf3ec92d6f4" d="M273.89,339.02c-1.2-.5-3.5-1.3-6.5-.9-5.3.7-8.2,4.9-8.7,5.6-6-7-15.5-8.2-21.2-4-5.9,4.4-5.4,12.7-5.3,13.3-10.1.6-16.5,9.5-15.2,16.6,1.3,7.2,10.8,13.4,20.6,10,.1.9.7,10.1,8.1,14.6,7,4.3,17.1,2.6,23.7-4.6,1.9,1.5,8.8,6.3,18.6,5.9,8.6-.3,14.5-4.4,16.6-5.9,11.5,7.2,24.3,8,32.5,2,1.8-1.4,4.6-3.9,6.6-8.6,12.6,3.1,22.5-3.5,23.2-9.7.6-4.9-4.4-11-12.1-14.1-.6-1.5-4.4-10.3-14.5-14-10.8-4-20,1.1-21.2,1.8-.7-1.3-6.8-12.7-20.6-15.1-13.8-2.6-23.5,6.1-24.6,7.1h0Z"/>
  <path class="uuid-ca783af6-f1a9-4cd8-bddf-fd4932cc2130" d="M258.99,180.72c-3.6-2.2-8.1-2.2-11.3,0-3.3,2.3-4.1,5.9-4.2,6.7-4.9-5.6-12.8-5.6-16.2-2.1-3.6,3.6-3.3,12.1,3.2,16.8-3.8,7.7-13.3,9.9-19.3,5.9s-7.4-13.8-1.7-20.1c-.1-.3-3.3-6,0-11.8,2.2-3.8,6.4-6.1,10.9-5.9.1-.3,1.8-6.9,8.4-8.8,6.3-1.9,11.2,2.2,11.5,2.5,4.5-3,10.3-3.2,14.5-.4,5.2,3.5,7.2,10.9,4.2,17.2h0Z"/>
  <circle class="uuid-ca783af6-f1a9-4cd8-bddf-fd4932cc2130" cx="251.39" cy="195.62" r="2.8"/>
  <path class="uuid-ca783af6-f1a9-4cd8-bddf-fd4932cc2130" d="M216.59,218.52l-28.9-30.6c-1.1.8-3.8,2.9-5,6.7-2,6.2,1.7,11.6,2.1,12.2-3.8-1.2-7.6-2.4-11.3-3.6-.4,1.7-.9,5.1.4,9,2.3,7,8.5,9.9,9.6,10.5-3.6.8-7.3,1.7-10.9,2.5.7,2,2.2,5.3,5.4,8,8.1,6.6,19,2.8,19.7,2.5-4.2,1.7-5.9,6.4-4.2,9.6,1.4,2.6,4.9,4,8,2.9,3.2-1.1,5.1-4.5,4.3-8-.7-.8-4.3-4.8-3.7-10.1.7-5.9,6.6-11.2,14.5-11.6h0Z"/>
  <path class="uuid-ca783af6-f1a9-4cd8-bddf-fd4932cc2130" d="M242.59,223.52c-1.2-1.1-3-2.4-5.4-3.5-3.4-1.5-6.5-1.8-8.4-1.8-.6.3-1.4.9-2.2,1.8-1.2,1.3-1.7,2.7-2,3.5,2.9.9,6.7,1.7,11.2,1.7,2,0,3.8-.2,5.4-.4.5-.4.9-.8,1.4-1.3h0Z"/>
  <path class="uuid-ca783af6-f1a9-4cd8-bddf-fd4932cc2130" d="M240.89,237.72l-28.2,4.1c-.7,3.3-2.1,5.2-3.2,6.3-1.7,1.7-3.1,1.9-5.6,4.2-1.3,1.2-2.5,2.3-3.4,3.9-1.4,2.6-1.1,5.2-1,6.7.5,4.8,2.7,19.2,6.3,38.6h3.9l10.9-25.6c-6.2-3.4-9.8-9.8-9.1-16.2.8-6.6,5.8-10.3,6.7-11,.8,1,1.7,2,2.5,3-.4.3-5.2,3.5-5.3,9.2-.1,4.6,2.8,9,7.3,10.9-.4,1.4-.8,2.7-1.3,4.1,1.8,2.9,3.9,6,6.1,9.1,4.7,6.4,9.4,11.9,14,16.5h3.6c-1.5-8.1-2.9-16.6-3.9-25.6-.4-3.5-.8-6.9-1.1-10.2,2-1.2,7.2-4.5,10.4-11.2,2.8-5.8,2.7-11,2.5-13.4-.8.3-4,1.4-7.6.1-2.3-1-3.9-2.7-4.5-3.5h0Z"/>
  <circle class="uuid-ca783af6-f1a9-4cd8-bddf-fd4932cc2130" cx="217.59" cy="297.62" r="3.9"/>
  <circle class="uuid-ca783af6-f1a9-4cd8-bddf-fd4932cc2130" cx="251.39" cy="297.62" r="3.9"/>
  <path class="uuid-ca783af6-f1a9-4cd8-bddf-fd4932cc2130" d="M298.39,229.32h-8.1c-.8-4.3-4.3-7.6-8.7-8-1.9-19-9-33.3-13.8-41.3-.8.6-1.6,1.2-2.4,1.8,4.2,7.4,10.9,21.2,12.7,39.8-3.6,1-6.4,3.9-7,7.6h-11.6v3.7h11.7c.7,3.6,3.5,6.6,7,7.5-1.9,19.1-9,33.2-12.7,39.7l2.4,2.4c3.8-6.4,11.7-21.4,13.8-41.8,4.4-.4,7.9-3.6,8.8-7.9h8.1v-3.5h-.2Z"/>
  <path class="uuid-ed1bf75b-04e4-4f6c-be63-0787639eba9b" d="M310.29,225.22c-2.6-2.1-4.5-3.7-6.7-3.2-1.3.3-2.5,1.3-3,2.5-.8,2.1.5,5.2,3.6,6.9-3.1,1.7-4.5,4.7-3.6,6.9.5,1.2,1.7,2.2,3,2.5,2.1.5,4.1-1.1,6.7-3.2,1.5-1.3,3.6-3.2,5.7-6.1-2.1-3-4.2-5-5.7-6.3h0Z"/>
</svg>