<?xml version="1.0" encoding="utf-8"?>
<!-- Generator: Adobe Illustrator 28.2.0, SVG Export Plug-In . SVG Version: 6.00 Build 0)  -->
<svg version="1.1" id="Layer_1" xmlns="http://www.w3.org/2000/svg" xmlns:xlink="http://www.w3.org/1999/xlink" x="0px" y="0px"
	 viewBox="0 0 482.4 482.4" style="enable-background:new 0 0 482.4 482.4;" xml:space="preserve">
<style type="text/css">
	.st0{fill:#939598;}
	.st1{fill:#58595B;}
	.st2{fill:#231F20;}
	.st3{fill:#FFCB78;}
	.st4{fill:#050505;}
	.st5{fill:#305C2C;}
	.st6{fill:#FAFBFC;}
</style>
<circle class="st0" cx="241.2" cy="241.2" r="241.2"/>
<circle class="st1" cx="241.5" cy="240.8" r="234.1"/>
<circle class="st2" cx="242" cy="240.9" r="227.9"/>
<circle class="st3" cx="242.3" cy="240.9" r="221.3"/>
<path d="M206.9,202.2v23.8h21.6l11.9-8.2c1.5,3.7,3.4,9.4,3.7,16.7c0.4,9.2-2.1,16.5-3.7,20.5c-4.2-3.5-8.4-6.9-12.6-10.4l-20.8-1.5
	v21.6c8.4,6.8,16.9,13.6,25.3,20.5c-2.9,3.1-5.7,6.2-8.6,9.3h-11.5c-1.1-1.5-3.5-4.2-7.4-6.1c-4.1-2-7.8-2.1-9.7-2
	c-0.2,2.4-0.3,5.2,0,8.4c0.5,4.8,1.7,8.7,2.8,11.5c-0.9,2-2.5,6.2-2.1,11.7c0.1,1.8,0.6,7,4.5,11.9c3.7,4.8,8.5,6.5,11.5,7.6
	c5.8,2.1,10.9,2,14.1,1.7c0.8,4.4,1.5,10.2,1.1,17.1c-0.5,7.7-2.1,14.1-3.7,18.6h-58l-5.2-92.2l23.8-19.3l0.7-18.6l-20.8-0.7
	l-11.2,11.2c-1.5-1.7-7.1-8-7.4-17.9c-0.4-11.2,6.1-18.6,7.4-20.1c3.2,2.7,6.4,5.5,9.7,8.2l20.8,0.7v-23.8l-9.7-9.7
	c5.6-1.2,12.6-2.2,20.8-2.2c8.5,0,15.8,1,21.6,2.2L206.9,202.2L206.9,202.2z"/>
<path d="M225.5,297.8h-16c-0.8-1-2.1-2.4-3.9-3.9c-1.9-1.5-5.8-4.8-7.2-4c-1,0.6-1.2,3.8,3.7,16.4c-0.7,1.3-4.6,9-1.5,16.7
	c3.6,8.6,14.6,13.9,26.4,11.2c1.6,2.5,3.2,5,4.8,7.4v29.8l-5.2,3.4h10V344h3.7c-0.1,9.1-0.1,18.1-0.2,27.2c-4.1,2.2-4.8,3.2-4.6,3.7
	c0.2,0.7,2.4,0.7,3.9,0.6c2,0,3.6-0.4,4.7-0.6v-38.5c1.7-23,14.7-37.8,25.3-37.4c9.6,0.3,18.1,13.2,21.5,22.1
	c2.3,6.1,2.7,11.6,2.7,15.3v35.5l-3.7,3h7.8v-37.2l4.5,0.4v34.6l-2.6,2.2h7.4v-41.3c4.8-7.1,10.7-17.8,14.4-31.7
	c3.5-13.2,6-22.6,3.1-34.1c-2.4-9.7-7.6-16.5-4.5-20.6c2-2.5,6.1-2.6,9.3-2.2c0.5-1.3,0.2-2.8-0.7-3.7c-0.9-0.8-2.2-1.1-3.4-0.7
	c-1.7,0-4.7,0.3-7.4,2.2c-5.7,4.1-5.3,12.2-5.2,14.1c0.3,6.7,3.7,11,5.2,13.8c3.5,6.4,4.7,17.9-7.1,40.2
	c-11.9-36.4-31.1-58.6-43.9-56.2c-10.2,2-20.1,20.1-22.3,24.2c-3.5,6.5-5.5,12.4-6.7,16.7c-1.1-5.5-2.2-6.6-3-6.7
	c-1.1-0.1-1.8,1.8-4.1,4.5C228.8,295.5,226.9,297,225.5,297.8L225.5,297.8z"/>
<path d="M281.3,111.1l-21.2-10c-1.1-2.3-3.3-5.8-7.1-7.1c-1.3-0.4-5-1.3-16,5.2c-7.6,4.6-9.7,7.3-17.3,12.5
	c-6.1,4.2-9.8,5.9-13.7,8.1c-13.9,7.9-19.9,16.1-34.1,29.2c-6.7,6.2-16.9,15-30.5,24.6c8.2-2.2,16.4-4.5,24.6-6.7
	c-4.4,4.3-9.6,8.9-15.6,13.4c-7.7,5.8-15,10.3-21.6,13.8c3.8-1.2,7.7-2.5,11.5-3.7l-6.7,8.9l16.7-8.9l-9.3,10.8l13.4-8.9l-3.4,7.1
	c4.6-3.9,9.8-9,14.9-15.2c3.9-4.8,7.1-9.5,9.7-13.8c2.6,1.7,5.2,3.5,7.8,5.2c-0.1,1.5-0.1,3.9,0.9,6.6c2,5.2,6.4,7.7,7.6,8.3
	c3.2,0.1,6.5,0.1,9.7,0.2c-5.1,0.4-9.7-1.6-12.1-5.4c-1.5-2.3-1.7-4.7-1.7-6c1.9-1.1,5-3,8.9-5.2c19.4-11,25.4-12.4,35.3-20.5
	c5.6-4.5,8.6-6.9,11.4-11.4c1.6-2.6,7.7-12,9.5-21.3c0.2-1.2,0.8-4.3,3.2-6.7c1.6-1.5,3.3-2.2,4.5-2.6
	C267.7,111.4,274.5,111.2,281.3,111.1L281.3,111.1z"/>
<path class="st4" d="M265.7,147.4c3.2-2.3,7.2-4.8,11.9-7c6.4-3.1,12.3-4.8,17.1-5.8c0.2,0.7,2.8,11.7,13.7,15.6
	c10.4,3.8,19-2.2,19.8-2.7c-0.5-0.8-0.9-1.9-1.3-3c-0.8-2.4-1-4.6-0.9-6.1c0.2,0.3,2,3.2,5.7,3.5c4.1,0.3,6.5-3,6.6-3.2
	c0,0-1.2,4.8-1.2,4.8c0,0-1,3.9-1,4c3.3-0.1,9.2-0.7,15.3-4.3c11.4-6.6,14.5-18.3,15.2-20.8c1.4,1.9,4,4.7,7.9,5.8
	c2,0.5,3.7,0.4,9.6-0.6c3.1-0.5,6.9-1.1,11.2-1.9c-2.5,0.9-9.7,4-14,11.6c-1.7,3-2.4,5.9-2.8,8.1c-1.1-0.3-11.1-2.6-19.5,4.1
	c-6.4,5.2-9.3,13.6-7.7,21.9c-3-2.9-5.8-4.8-7.7-5.9c-4.1-2.4-6.7-3.9-10-3.3c-3.6,0.7-5.9,3.6-6.5,4.5c-1.5,1.9-2.1,3.8-2.4,4.9
	c-0.3-0.8-5-12.2-16.6-14.5c-7.1-1.4-12.8,1.4-14.7,2.4c-0.4-1.9-1.7-7-6.2-10.7C281.4,144.2,273,143.7,265.7,147.4L265.7,147.4z"/>
<path class="st4" d="M314,203.1c-1.3-1.7-3-3.6-5-5.4c-2.8-2.6-5.6-4.4-7.9-5.6c-0.2,0.4-3.2,5.6-9.4,5.9c-5.9,0.3-9.4-4.1-9.8-4.4
	c0.4-0.4,0.8-0.8,1.1-1.3c0.8-1.1,1.2-2.2,1.4-3c-0.1,0.1-1.5,1.4-3.5,0.9c-2.1-0.5-2.9-2.6-2.9-2.6c0,0-0.1,2.6-0.1,2.7
	c0,0-0.1,2.2-0.1,2.2c-1.7-0.6-4.6-1.8-7.2-4.6c-4.8-5.2-4.6-11.6-4.6-13c-1,0.8-2.8,1.8-5,1.7c-1.1,0-1.9-0.4-4.8-1.8
	c-1.5-0.7-3.4-1.6-5.4-2.7c1.1,0.9,4.4,3.5,5.4,8.1c0.4,1.8,0.3,3.4,0.2,4.6c0.6,0,6.1,0.4,9.4,5.1c2.5,3.6,2.7,8.4,0.6,12.4
	c2-1.1,3.7-1.6,4.9-1.9c2.5-0.6,4.1-1,5.6-0.1c1.7,0.9,2.5,2.8,2.7,3.3c0.5,1.2,0.5,2.3,0.5,2.9c0.3-0.4,4.4-5.5,10.8-4.9
	c3.9,0.4,6.4,2.7,7.2,3.5c0.5-0.9,1.9-3.3,4.8-4.5C306.5,199.1,310.8,200.1,314,203.1L314,203.1z"/>
<rect x="105.6" y="374.8" class="st5" width="252.8" height="3.4"/>
<path class="st5" d="M114.4,377.4c0-3.2,0.1-6.5,0.1-9.7l3.6,4.4v-17.8l3.3,16.5l3.9-6.7v11l2.8-8.2l1.7,4.2v-16.7l2.5,15.3l2.8-4.2
	l-1.4,11.1h5.3v-9.4l2.5,4.2l1.9-5.9l1.6,7.3l2.8-18.4l1.4,13.1l2.2-3.9v13.1l1.9-0.9l0.9-18.6l1.2,14.4l2.2-4.4v10.1
	C143.4,377.3,128.9,377.3,114.4,377.4L114.4,377.4z"/>
<polygon class="st5" points="321.8,376.6 321.8,362.4 324.9,368.2 333.5,348.1 329.6,368.8 343.3,349.3 336.6,368.8 351.9,354.3 
	341.6,369.6 356.4,360.1 347.2,371 358.3,368.2 349.7,376.6 "/>
<path class="st6" d="M208.6,311.5h4.7c0.4,0,0.8,0.4,0.8,0.8v1.8c0,0.4-0.4,0.8-0.8,0.8h-4.7c-0.4,0-0.8-0.4-0.8-0.8v-1.8
	C207.8,311.8,208.1,311.5,208.6,311.5z"/>
<path class="st6" d="M224.6,311.5h4.7c0.4,0,0.8,0.4,0.8,0.8v1.8c0,0.4-0.4,0.8-0.8,0.8h-4.7c-0.4,0-0.8-0.4-0.8-0.8v-1.8
	C223.8,311.8,224.2,311.5,224.6,311.5z"/>
</svg>
